<svg width="30" height="28" viewBox="0 0 30 28" fill="none" xmlns="http://www.w3.org/2000/svg">
<path d="M9 14.7017C11.0817 14.7017 12.7692 12.7538 12.7692 10.3509C12.7692 7.94795 11.0817 6 9 6C6.91831 6 5.23077 7.94795 5.23077 10.3509C5.23077 12.7538 6.91831 14.7017 9 14.7017Z" fill="#80ADDD"/>
<path d="M7.11897 15.9356C4.34464 16.0069 2 18.2706 2 21.164C2 21.6257 2.35901 22 2.80186 22H15.2026C15.643 22 16 21.6278 16 21.1686C16 18.2786 13.6479 16.011 10.877 15.9312C10.8459 15.9303 10.8148 15.9294 10.7836 15.9284C9.59565 15.8914 8.40513 15.8993 7.21708 15.933C7.18442 15.9339 7.15172 15.9348 7.11897 15.9356Z" fill="#80ADDD"/>
</svg>
