<svg width="30" height="28" viewBox="0 0 30 28" fill="none" xmlns="http://www.w3.org/2000/svg">
<path fill-rule="evenodd" clip-rule="evenodd" d="M12.15 7C12.7713 7 13.275 7.48215 13.275 8.07692C13.275 8.67169 13.7787 9.15385 14.4 9.15385H16.425C17.2948 9.15385 18 9.82886 18 10.6615V19.4923C18 20.325 17.2948 21 16.425 21H1.575C0.705151 21 0 20.325 0 19.4923V10.6615C0 9.82886 0.705151 9.15385 1.575 9.15385H3.825C4.44632 9.15385 4.95 8.67169 4.95 8.07692C4.95 7.48215 5.45368 7 6.075 7H12.15ZM9 18.8462C11.4853 18.8462 13.5 16.9175 13.5 14.5385C13.5 12.1594 11.4853 10.2308 9 10.2308C6.51472 10.2308 4.5 12.1594 4.5 14.5385C4.5 16.9175 6.51472 18.8462 9 18.8462ZM9 17.1842C7.47359 17.1842 6.2362 15.9996 6.2362 14.5385C6.2362 13.0773 7.47359 11.8928 9 11.8928C10.5264 11.8928 11.7638 13.0773 11.7638 14.5385C11.7638 15.9996 10.5264 17.1842 9 17.1842Z" fill="#80ADDD"/>
</svg>
