<svg width="30" height="28" viewBox="0 0 30 28" fill="none" xmlns="http://www.w3.org/2000/svg">
<path d="M8.49718 6.22716L0.0896297 14.6318C-0.101838 14.826 0.0337671 15.1581 0.304544 15.1581H2.29474V22C2.29474 22 2.64287 22 3.0727 22C3.0727 22 3.0727 22 3.0727 22C3.07271 22 5.39644 22 5.94822 22L6.5 22C6.5 22 6.5 18.5 6.5 17C6.5 16 7.5 15 9 15C10.5 15 11.5 16 11.5 17C11.5527 18.5 11.5 22 11.5 22C11.5 22 11.7452 22 12.3164 22H15.7848V14.895H17.7401C17.9729 14.895 18.0879 14.6078 17.9209 14.4431L9.58598 6.22342C9.28245 5.92408 8.7987 5.92574 8.49718 6.22716Z" fill="#80ADDD"/>
</svg>
