<svg width="30" height="28" viewBox="0 0 30 28" fill="none" xmlns="http://www.w3.org/2000/svg">
<path d="M3.2095 18.867L4.32061 18.528V8.35404L16 5V15.1545C16 16.0602 15.9234 16.9643 15.771 17.8571L15.6428 18.3159C15.5018 18.821 15.2299 19.2799 14.8547 19.6462C14.6273 19.8682 14.3659 20.0524 14.0803 20.1918L13.9838 20.239C13.5776 20.4373 13.1314 20.5404 12.6794 20.5404H12.4352C12.1438 20.5404 11.8563 20.4739 11.5944 20.3461C11.1178 20.1134 10.7589 19.6937 10.6032 19.1867L10.5815 19.1161C10.53 18.9486 10.5038 18.7742 10.5038 18.5989C10.5038 18.1246 10.6952 17.6703 11.0346 17.3389L11.2136 17.1641C11.3506 17.0303 11.5034 16.9138 11.6685 16.8171L11.917 16.6715C12.3462 16.42 12.8126 16.2382 13.2987 16.1327L13.5954 16.0683V9.58385L6.72519 11.8199V19.4665C6.72519 19.8082 6.6786 20.1482 6.58669 20.4772L6.56857 20.5421C6.44523 20.9837 6.23449 21.396 5.94883 21.7546L5.92858 21.78C5.698 22.0694 5.41949 22.3172 5.10515 22.5125L5.0541 22.5443C4.57468 22.8421 4.0215 23 3.45707 23H3.43101C3.18543 23 2.9409 22.968 2.70359 22.9048L2.32928 22.8051C1.98655 22.7139 1.68223 22.5148 1.46124 22.2374C1.16778 21.869 1.04531 21.3929 1.12456 20.9287L1.13269 20.881C1.19529 20.5143 1.37238 20.1768 1.63857 19.9169L1.94923 19.6135C2.30361 19.2675 2.73578 19.0115 3.2095 18.867Z" fill="#80ADDD"/>
</svg>
