<svg width="20" height="20" viewBox="0 0 20 20" fill="none" xmlns="http://www.w3.org/2000/svg">
<path fill-rule="evenodd" clip-rule="evenodd" d="M17.2 6.78C17.31 6.9595 17.391 7.15524 17.44 7.36C17.5 7.59 17.5 7.84 17.5 8.33V11.3C17.5 13.82 17.5 15.08 17.01 16.04C16.5783 16.8885 15.8885 17.5783 15.04 18.01C14.08 18.5 12.82 18.5 10.3 18.5H9.7C7.18 18.5 5.92 18.5 4.96 18.01C4.11147 17.5783 3.42174 16.8885 2.99 16.04C2.5 15.08 2.5 13.82 2.5 11.3V8.7C2.5 6.18 2.5 4.92 2.99 3.96C3.42174 3.11147 4.11147 2.42174 4.96 1.99C5.92 1.5 7.18 1.5 9.7 1.5H10.67C11.17 1.5 11.41 1.5 11.64 1.56C11.84 1.6 12.04 1.69 12.22 1.79C12.42 1.92 12.59 2.09 12.94 2.44L16.56 6.06C16.91 6.41 17.08 6.58 17.21 6.78H17.2ZM10.3 17H9.7C8.42 17 7.54 17 6.87 16.94C6.21 16.89 5.87 16.79 5.64 16.67C5.07758 16.3851 4.61922 15.9302 4.33 15.37C4.15914 14.9785 4.06738 14.5571 4.06 14.13C4 13.46 4 12.58 4 11.3V8.7C4 7.42 4 6.54 4.06 5.87C4.11 5.21 4.21 4.87 4.33 4.64C4.61492 4.07758 5.06978 3.61922 5.63 3.33C5.87 3.21 6.21 3.11 6.87 3.06C7.54 3 8.42 3 9.7 3H10V4.28C10 4.95 10 5.51 10.04 5.95C10.07 6.42 10.16 6.83 10.35 7.23C10.67 7.83 11.16 8.33 11.77 8.65C12.17 8.85 12.58 8.93 13.05 8.96C13.49 9 14.05 9 14.72 9H16V11.3C16 12.58 16 13.46 15.94 14.13C15.89 14.79 15.79 15.13 15.67 15.36C15.3851 15.9224 14.9302 16.3808 14.37 16.67C14.13 16.79 13.79 16.89 13.13 16.94C12.46 17 11.58 17 10.3 17V17ZM15.87 7.5H14.75C14.04 7.5 13.55 7.5 13.17 7.47C12.9252 7.46342 12.684 7.40907 12.46 7.31C12.13 7.14 11.86 6.87 11.69 6.54C11.5922 6.31911 11.5379 6.08145 11.53 5.84C11.5005 5.31055 11.4905 4.78019 11.5 4.25V3.13L11.51 3.14L11.88 3.5L15.5 7.12L15.86 7.49L15.87 7.5V7.5Z" fill="#5181B8"/>
</svg>
