<svg width="600" height="600" viewBox="0 0 600 600" fill="none" xmlns="http://www.w3.org/2000/svg">
<path fill-rule="evenodd" clip-rule="evenodd" d="M300 510C184.02 510 90 415.98 90 300C90 184.02 184.02 90 300 90C415.98 90 510 184.02 510 300C510 415.98 415.98 510 300 510ZM45 300C45 159.167 159.167 45 300 45C440.832 45 555 159.167 555 300C555 440.832 440.832 555 300 555C159.167 555 45 440.832 45 300Z" fill="#5181B8"/>
<path d="M213.91 245.73C205.123 236.943 205.123 222.697 213.91 213.91V213.91C222.697 205.123 236.943 205.123 245.73 213.91L385.77 353.95C394.557 362.737 394.557 376.983 385.77 385.77V385.77C376.983 394.557 362.737 394.557 353.95 385.77L213.91 245.73Z" fill="#5181B8"/>
<path d="M245.73 385.77C236.943 394.557 222.697 394.557 213.91 385.77V385.77C205.123 376.983 205.123 362.737 213.91 353.95L353.95 213.91C362.737 205.123 376.983 205.123 385.77 213.91V213.91C394.557 222.697 394.557 236.943 385.77 245.73L245.73 385.77Z" fill="#5181B8"/>
</svg>
