<svg width="20" height="20" viewBox="0 0 20 20" fill="none" xmlns="http://www.w3.org/2000/svg">
<path fill-rule="evenodd" clip-rule="evenodd" d="M12.06 1.5C12.71 1.5 13.29 1.5 13.76 1.54C14.27 1.58 14.8 1.67 15.32 1.94C16.0684 2.32276 16.6772 2.93157 17.06 3.68C17.33 4.2 17.42 4.73 17.46 5.24C17.5 5.71 17.5 6.29 17.5 6.94V13.06C17.5 13.71 17.5 14.29 17.46 14.76C17.4319 15.3015 17.2959 15.8318 17.06 16.32C16.6772 17.0684 16.0684 17.6772 15.32 18.06C14.8 18.33 14.27 18.42 13.76 18.46C13.29 18.5 12.71 18.5 12.06 18.5H7.94C7.29 18.5 6.71 18.5 6.24 18.46C5.69851 18.4322 5.16807 18.2962 4.68 18.06C3.93157 17.6772 3.32276 17.0684 2.94 16.32C2.70384 15.8319 2.56783 15.3015 2.54 14.76C2.5 14.29 2.5 13.71 2.5 13.06V6.94C2.5 6.29 2.5 5.71 2.54 5.24C2.58 4.73 2.67 4.2 2.94 3.68C3.32276 2.93157 3.93157 2.32276 4.68 1.94C5.16807 1.70384 5.69851 1.56783 6.24 1.54C6.71 1.5 7.29 1.5 7.94 1.5H12.06ZM4.27 4.37C4 4.9 4 5.6 4 7V13C4 14.4 4 15.1 4.27 15.63C4.51 16.11 4.89 16.49 5.37 16.73C5.9 17 6.6 17 8 17H12C13.4 17 14.1 17 14.63 16.73C15.1043 16.4896 15.4896 16.1043 15.73 15.63C16 15.1 16 14.4 16 13V7C16 5.6 16 4.9 15.73 4.37C15.4896 3.89568 15.1043 3.51035 14.63 3.27C14.1 3 13.4 3 12 3H8C6.6 3 5.9 3 5.37 3.27C4.89568 3.51035 4.51035 3.89568 4.27 4.37V4.37ZM6 14C6 13.67 6 13.51 6.06 13.38C6.12489 13.2384 6.23845 13.1249 6.38 13.06C6.51 13 6.68 13 7 13C7.32 13 7.49 13 7.62 13.06C7.76 13.12 7.88 13.24 7.94 13.38C8 13.51 8 13.68 8 14C8 14.32 8 14.49 7.94 14.62C7.87511 14.7616 7.76155 14.8751 7.62 14.94C7.49 15 7.32 15 7 15C6.68 15 6.51 15 6.38 14.94C6.23845 14.8751 6.12489 14.7616 6.06 14.62C6 14.49 6 14.32 6 14ZM6.06 9.38C6 9.51 6 9.68 6 10C6 10.33 6 10.49 6.06 10.62C6.12 10.76 6.24 10.88 6.38 10.94C6.51 11 6.68 11 7 11C7.32 11 7.49 11 7.62 10.94C7.76155 10.8751 7.87511 10.7616 7.94 10.62C8 10.49 8 10.32 8 10C8 9.67 8 9.51 7.94 9.38C7.87511 9.23845 7.76155 9.12489 7.62 9.06C7.49 9 7.32 9 7 9C6.68 9 6.51 9 6.38 9.06C6.23845 9.12489 6.12489 9.23845 6.06 9.38V9.38ZM12 6C12 5.67 12 5.51 12.06 5.38C12.1249 5.23845 12.2384 5.12489 12.38 5.06C12.51 5 12.68 5 13 5C13.32 5 13.49 5 13.62 5.06C13.76 5.12 13.88 5.24 13.94 5.38C14 5.51 14 5.68 14 6C14 6.32 14 6.49 13.94 6.62C13.8751 6.76155 13.7616 6.87511 13.62 6.94C13.49 7 13.32 7 13 7C12.68 7 12.51 7 12.38 6.94C12.2384 6.87511 12.1249 6.76155 12.06 6.62C12 6.49 12 6.32 12 6ZM12.06 13.38C12 13.51 12 13.68 12 14C12 14.32 12 14.49 12.06 14.62C12.12 14.76 12.24 14.88 12.38 14.94C12.51 15 12.68 15 13 15C13.32 15 13.49 15 13.62 14.94C13.7616 14.8751 13.8751 14.7616 13.94 14.62C14 14.49 14 14.32 14 14C14 13.68 14 13.51 13.94 13.38C13.8751 13.2384 13.7616 13.1249 13.62 13.06C13.49 13 13.32 13 13 13C12.68 13 12.51 13 12.38 13.06C12.2384 13.1249 12.1249 13.2384 12.06 13.38ZM12 10C12 9.67 12 9.51 12.06 9.38C12.1249 9.23845 12.2384 9.12489 12.38 9.06C12.51 9 12.68 9 13 9C13.32 9 13.49 9 13.62 9.06C13.76 9.12 13.88 9.24 13.94 9.38C14 9.51 14 9.68 14 10C14 10.33 14 10.49 13.94 10.62C13.8751 10.7616 13.7616 10.8751 13.62 10.94C13.49 11 13.32 11 13 11C12.68 11 12.51 11 12.38 10.94C12.2384 10.8751 12.1249 10.7616 12.06 10.62C12 10.49 12 10.32 12 10ZM6.06 5.38C6 5.51 6 5.68 6 6C6 6.32 6 6.49 6.06 6.62C6.12 6.76 6.24 6.88 6.38 6.94C6.51 7 6.68 7 7 7C7.32 7 7.49 7 7.62 6.94C7.76155 6.87511 7.87511 6.76155 7.94 6.62C8 6.49 8 6.32 8 6C8 5.68 8 5.51 7.94 5.38C7.87511 5.23845 7.76155 5.12489 7.62 5.06C7.49 5 7.32 5 7 5C6.68 5 6.51 5 6.38 5.06C6.23845 5.12489 6.12489 5.23845 6.06 5.38V5.38Z" fill="#5181B8"/>
</svg>
