<svg width="30" height="28" viewBox="0 0 30 28" fill="none" xmlns="http://www.w3.org/2000/svg">
<path d="M11.0327 23.9062L11.1022 23.9306C11.2337 23.9766 11.3713 24 11.5099 24C11.7435 24 11.9728 23.9333 12.1732 23.8072L15.5224 21.6979C15.7215 21.5725 15.8714 21.3764 15.9448 21.1452L15.9543 21.1153C16.0209 20.9054 16.0145 20.6776 15.9363 20.4721C15.8678 20.2924 15.7478 20.1394 15.593 20.0342L12.1461 17.6932C12.036 17.6184 11.9173 17.5585 11.7928 17.515L11.6355 17.4599C11.4182 17.3839 11.1832 17.3839 10.9658 17.4599C10.7424 17.5381 10.5502 17.6922 10.4196 17.8979L10.3805 17.9595C10.242 18.1775 10.1681 18.4336 10.1681 18.6957V22.6471C10.1681 22.9091 10.242 23.1653 10.3805 23.3833C10.5365 23.6289 10.766 23.8129 11.0327 23.9062Z" fill="#99B1C6"/>
<path d="M2.01358 7.23809L2.22044 12.0148C2.23143 12.2688 2.4308 12.4688 2.673 12.4688H3.99954C4.25947 12.4688 4.5177 12.5127 4.76429 12.599C4.96821 12.6704 5.16215 12.7699 5.341 12.8951L5.44214 12.9658C5.64712 13.1093 5.83238 13.2816 5.99271 13.4779C6.28022 13.83 6.48075 14.251 6.57659 14.7036L6.58802 14.7576C6.63396 14.9746 6.65713 15.1962 6.65713 15.4185V15.748C6.65713 16.0951 6.59766 16.4393 6.48156 16.7643L6.43868 16.8843C6.35837 17.1091 6.24258 17.3181 6.09617 17.5025C5.87 17.7874 5.57714 18.0056 5.24634 18.1358L5.0692 18.2056C4.92095 18.2639 4.76392 18.2938 4.60559 18.2938H4.39199C4.24495 18.2938 4.10188 18.2438 3.98426 18.1512C3.81315 18.0165 3.71244 17.8051 3.71244 17.5805C3.71244 17.356 3.81315 17.1446 3.98426 17.0099L4.16547 16.8673L4.74217 16.4637C4.81056 16.4159 4.87429 16.361 4.93242 16.3L5.07937 16.1458C5.21939 15.9988 5.29804 15.7995 5.29804 15.5916C5.29804 15.4919 5.27992 15.3932 5.24465 15.3006L5.18219 15.1367C5.10918 14.9451 4.99985 14.7711 4.86083 14.6252C4.70147 14.4579 4.50719 14.3319 4.29338 14.2571L4.21579 14.2299C4.03243 14.1658 3.84042 14.1331 3.64715 14.1331H3.48593C3.18587 14.1331 2.88777 14.1838 2.60311 14.2834L2.52324 14.3114C2.18567 14.4295 1.86846 14.6039 1.5838 14.828L1.40304 14.9703C1.20652 15.125 1.0253 15.3001 0.862102 15.4928L0.701288 15.6827C0.373972 16.0692 0.150537 16.5401 0.0539155 17.0472C0.00154349 17.3221 -0.0127751 17.6034 0.011402 17.8826L0.0347188 18.1518C0.0702267 18.5618 0.156062 18.9652 0.290093 19.3521L0.355846 19.5419C0.479189 19.8979 0.632713 20.2416 0.814572 20.5688L1.08398 21.0536C1.25027 21.3528 1.44448 21.634 1.66374 21.8929C2.04511 22.3432 2.49775 22.721 3.0017 23.0095L3.06444 23.0454C3.34488 23.206 3.63835 23.3401 3.94139 23.4461L4.03737 23.4797C4.57353 23.6673 5.13063 23.781 5.69469 23.818L6.65713 23.8811H8.35599C8.48109 23.8811 8.58251 23.7747 8.58251 23.6434V18.9156C8.58251 18.6603 8.60912 18.4059 8.66187 18.1567L8.6767 18.0867C8.76402 17.6742 8.9296 17.2845 9.16357 16.9407L9.17676 16.9213C9.30864 16.7275 9.4624 16.5512 9.63468 16.3962C9.98491 16.0811 10.4037 15.8613 10.854 15.7563L10.8913 15.7475C11.0881 15.7016 11.2891 15.6785 11.4907 15.6785C11.9603 15.6785 12.4222 15.8041 12.8326 16.0435L13.2261 16.2729L13.7408 16.6105C13.9004 16.7152 14.1049 16.5818 14.0862 16.3853L14.0404 15.9044C14.0261 15.754 14.0013 15.6049 13.9664 15.4582C13.852 14.9779 13.6304 14.5331 13.3198 14.1606L13.2392 14.0639C13.0799 13.8728 12.902 13.6996 12.7084 13.5472L12.6118 13.4712C12.2689 13.2013 11.8834 12.997 11.473 12.8678L11.0858 12.7458C11.003 12.7198 10.917 12.7065 10.8305 12.7065H10.4516C10.3473 12.7065 10.2519 12.6446 10.2052 12.5467C10.181 12.4959 10.1716 12.4387 10.1782 12.3823L10.8216 6.86674C10.8389 6.71881 10.8358 6.56905 10.8125 6.42204C10.7617 6.1023 10.617 5.80721 10.3986 5.578L10.196 5.36527C10.0301 5.19117 9.81886 5.0725 9.58885 5.02422C9.44767 4.99458 9.30253 4.99212 9.16051 5.01697L8.8659 5.06851C8.75311 5.08824 8.64377 5.12556 8.5415 5.17923C8.34637 5.28164 8.18312 5.44032 8.07088 5.63667L8.02052 5.72477C7.94261 5.86107 7.88504 6.00908 7.84982 6.16367L6.68175 11.2908C6.66565 11.3614 6.63123 11.426 6.58229 11.4774L6.49474 11.5693C6.39678 11.6721 6.23794 11.6721 6.13998 11.5693C6.10783 11.5356 6.08502 11.4933 6.07399 11.447L5.07153 7.23809L4.98314 6.91337C4.89255 6.58058 4.72266 6.27751 4.48949 6.03277L4.46235 6.00428C4.4155 5.9551 4.36538 5.90948 4.31237 5.86775C4.06998 5.67693 3.77517 5.57378 3.47219 5.57378H3.43647C3.24469 5.57378 3.05467 5.6122 2.87661 5.68696L2.82624 5.7081C2.66369 5.77635 2.51603 5.87855 2.39223 6.00849C2.14978 6.26297 2.01358 6.60812 2.01358 6.96801V7.23809Z" fill="#99B1C6"/>
</svg>
