<svg width="30" height="28" viewBox="0 0 30 28" fill="none" xmlns="http://www.w3.org/2000/svg">
<path d="M6.87094 18.8367C10.6656 18.8367 13.7419 16.1869 13.7419 12.9183C13.7419 9.64973 10.6656 7 6.87094 7C3.07624 7 0 9.64973 0 12.9183C0.402119 15.978 1.60117 16.8807 2.37907 17.4663C3.10589 18.0135 3.46506 18.2839 2.46317 19.7782C3.72168 19.8598 4.69902 19.4958 5.50161 19.1968C6.02182 19.0031 6.4686 18.8367 6.87094 18.8367Z" fill="#99B1C6"/>
<path d="M14.0012 8.61409L14.5705 8.91844C16.8411 10.132 18.4429 12.6177 17.8904 15.205C17.5579 16.7617 16.4549 17.9732 15.1994 18.8927L14.9086 19.1057L15.8161 20.9888C14.657 21.0747 13.5146 20.6644 12.6548 19.8534L12.5751 19.7782H10.5009C12.5909 18.8241 14.4246 17.163 15.0193 14.8757C15.0258 14.8508 15.0321 14.826 15.0383 14.8014C15.1228 14.4636 15.1958 14.077 15.2581 13.6816C15.5395 11.8939 15.0079 10.0939 14.0012 8.61409Z" fill="#99B1C6"/>
</svg>
