<svg width="30" height="28" viewBox="0 0 30 28" fill="none" xmlns="http://www.w3.org/2000/svg">
<path fill-rule="evenodd" clip-rule="evenodd" d="M0 10.5293H2V17.5C2 18.0523 2.44772 18.5 3 18.5H3.5V6.5C3.5 5.94772 3.94772 5.5 4.5 5.5H16.5C17.0523 5.5 17.5 5.94772 17.5 6.5V21C17.5 21.5523 17.0523 22 16.5 22H1C0.447715 22 0 21.5523 0 21V10.5293ZM7.5 9C7.22386 9 7 9.22386 7 9.5V13.5C7 13.7761 7.22386 14 7.5 14H13.5C13.7761 14 14 13.7761 14 13.5V9.5C14 9.22386 13.7761 9 13.5 9H7.5ZM7 15.5C7 15.2239 7.22386 15 7.5 15H13.5C13.7761 15 14 15.2239 14 15.5C14 15.7761 13.7761 16 13.5 16H7.5C7.22386 16 7 15.7761 7 15.5ZM7.5 17C7.22386 17 7 17.2239 7 17.5C7 17.7761 7.22386 18 7.5 18H11.5C11.7761 18 12 17.7761 12 17.5C12 17.2239 11.7761 17 11.5 17H7.5Z" fill="#99B1C6"/>
</svg>
