<svg width="30" height="28" viewBox="0 0 30 28" fill="none" xmlns="http://www.w3.org/2000/svg">
<path d="M8.83099 10.1146C8.83099 11.8347 7.63287 13.2292 6.15493 13.2292C4.67698 13.2292 3.47887 11.8347 3.47887 10.1146C3.47887 8.39444 4.67698 7 6.15493 7C7.63287 7 8.83099 8.39444 8.83099 10.1146Z" fill="#99B1C6"/>
<path d="M0 19.1332C0 16.3826 2.06569 14.2526 4.78105 14.1353C5.44318 14.1067 6.35336 14.0818 7.01513 14.1178C7.2493 14.1306 7.48491 14.1402 7.71952 14.1472C10.0499 14.2161 12.0423 16.0602 12.0423 18.4197V19.2053C12.0423 19.6442 11.6907 20 11.257 20H0.423615C0.189659 20 0 19.8081 0 19.5713V19.1332Z" fill="#99B1C6"/>
<path d="M15.7888 10.1146C15.7888 11.8347 14.5907 13.2292 13.1127 13.2292C11.6348 13.2292 10.4367 11.8347 10.4367 10.1146C10.4367 8.39444 11.6348 7 13.1127 7C14.5907 7 15.7888 8.39444 15.7888 10.1146Z" fill="#99B1C6"/>
<path d="M11.6516 14.4028C11.6102 14.377 11.628 14.3125 11.6766 14.3125H14.2541C16.875 14.3125 19 16.4628 19 19.1152C19 19.6039 18.6086 20 18.1258 20H13.7952C13.7877 20 13.7817 19.9939 13.7817 19.9863V18.2681C13.7817 16.6931 12.9757 15.2305 11.6516 14.4028Z" fill="#99B1C6"/>
</svg>
