<svg width="30" height="28" viewBox="0 0 30 28" fill="none" xmlns="http://www.w3.org/2000/svg">
<path fill-rule="evenodd" clip-rule="evenodd" d="M0 7.91429C0 7.40935 0.409347 7 0.914286 7H2.28571V9.28571H4.57143V7H11.4286V9.28571H13.7143V7H15.0857C15.5907 7 16 7.40935 16 7.91429V22.0857C16 22.5907 15.5907 23 15.0857 23H13.7143V20.7143H11.4286V23H4.57143V20.7143H2.28571V23H0.914286C0.409347 23 0 22.5907 0 22.0857V7.91429ZM4.57143 11.5714H2.28571V13.8571H4.57143V11.5714ZM11.4286 11.5714H13.7143V13.8571H11.4286V11.5714ZM13.7143 16.1429H11.4286V18.4286H13.7143V16.1429ZM2.28571 16.1429H4.57143V18.4286H2.28571V16.1429Z" fill="#99B1C6"/>
</svg>
