<svg width="1521" height="871" viewBox="0 0 1521 871" fill="none" xmlns="http://www.w3.org/2000/svg">
<path d="M52.45 0H228.3C237.33 0.5 246.47 1.56 254.94 4.9C264.71 8.51 273.07 15.33 279.33 23.58C287.7 34.7 293.27 47.6 298.39 60.46C322.73 129.25 352.19 196.23 386.29 260.74C406.13 298.07 427.5 334.62 451.08 369.72C471.18 399.4 492.61 428.39 517.7 454.08C529.73 465.95 542.4 477.76 557.8 485.13C566.92 489.65 578.03 490.43 587.46 486.42C595.3 482.73 598.84 474.04 600.65 466.09C604.23 449.32 603.61 432.05 603.77 415C603.76 341.32 603.8 267.65 603.75 193.97C602.38 170.92 598.29 147.81 589.49 126.37C582.77 109.73 572.78 94.61 561.29 80.89C553.32 70.92 543.96 61.56 539.36 49.41C535.52 39.42 536.66 27.64 542.87 18.85C550.38 7.3 563.94 0.65 577.52 0H845.38C857.21 0.51 870.22 3.33 878.09 12.96C887.16 24.12 888.51 39.2 889.09 53.02C889.08 154.67 889.09 256.32 889.09 357.97C889.32 373.95 887.63 390.77 894.35 405.78C897.75 413.63 904.2 421.12 913.08 422.43C922.23 423.18 931.4 420.64 939.51 416.51C952.84 409.43 964.2 399.32 975.35 389.3C982.65 382.36 990.36 375.83 997.02 368.25C1029.15 333.09 1057.52 294.65 1083.65 254.88C1123.97 193.08 1159.25 128.05 1189.99 60.99C1194.34 51.92 1197.62 42.3 1203.03 33.76C1209.94 22.33 1220.07 12.73 1232.29 7.19C1242.45 2.49 1253.64 0.61 1264.74 0H1440.5C1452.38 0.65 1464.79 2.17 1475.1 8.58C1482.32 13.01 1487.43 20.59 1488.82 28.94C1490.53 38.67 1488.72 48.61 1485.96 57.97C1481.66 76.44 1473.98 93.88 1465.89 110.96C1448.68 146.43 1428.56 180.4 1407.85 213.93C1363.68 284.85 1316.03 353.54 1267.33 421.4C1262.83 427.61 1258.54 433.96 1254.55 440.5C1250.01 448.23 1245.75 456.76 1246.19 465.98C1246.71 477.34 1253.15 487.3 1259.8 496.12C1269.07 509.01 1280.35 520.27 1291.82 531.19C1320.05 558.6 1349.64 584.71 1375.74 614.24C1403.81 644.97 1431.55 676.05 1457.53 708.59C1470.08 724.44 1482.24 740.62 1493.24 757.6C1502.07 771.38 1510.34 785.68 1516.03 801.08C1518.64 808.38 1520.05 816.04 1521 823.71V829.2C1520.09 836.96 1518.09 844.87 1513.22 851.16C1506.74 859.91 1496.46 864.97 1486.12 867.58C1479.57 869.38 1472.77 869.77 1466.12 871H1287.21C1278.58 869.54 1269.79 868.6 1261.58 865.41C1242.34 858.46 1226.81 844.53 1212.33 830.55C1185.28 803.3 1159.91 774.42 1132.92 747.11C1119.66 733.71 1106.47 720.25 1092.61 707.47C1065.78 683.01 1038.18 659.18 1007.96 638.95C990.92 627.78 972.95 617.31 953.1 612.09C942.68 609.28 931.78 609.08 921.09 609.98C913.35 610.73 905.11 612.64 899.46 618.36C892.91 625.21 891.12 634.98 890.03 644.05C888.66 658 889.19 672.04 889.09 686.04C889.09 728.38 889.08 770.71 889.09 813.05C888.78 823.5 887.2 834.48 881.06 843.24C874.46 852.7 863.79 858.28 853.04 861.71C831.17 868.81 807.91 869.1 785.26 871H757.67C748.52 869.9 739.23 869.7 730.04 868.83C674.8 864.03 620.59 849.67 569.49 828.33C470.63 786.96 383.55 720.22 312.84 640.15C288.76 613.22 267.26 584.14 246.11 554.89C189.42 476.53 137.78 394.38 93.71 308.24C73.51 268.55 54.89 228.01 38.67 186.51C25.62 152.67 13.73 118.28 5.55 82.91C3.02 71.88 0.92 60.73 0 49.44V41.57C0.59 30.82 3.91 19.51 12.36 12.29C23.36 2.82 38.46 0.68 52.45 0Z" fill="white"/>
</svg>
