<svg width="684" height="406" viewBox="0 0 684 406" fill="none" xmlns="http://www.w3.org/2000/svg">
<path d="M22.3 0.480098C48.53 0.150098 74.77 0.420084 101 0.340084C108.89 0.240084 117.41 2.0001 123.03 7.9501C130.05 15.2901 132.86 25.3601 136.28 34.6601C151.15 76.6001 169.77 117.25 192.24 155.67C204.85 176.52 218.12 197.29 235.23 214.78C240.73 220.08 246.58 225.55 253.95 228.04C258.79 229.44 265.23 228.78 267.99 224C271.51 217.52 271.29 209.84 271.61 202.68C271.74 172.77 271.63 142.87 271.67 112.97C271.52 99.6401 272.48 86.1401 269.5 73.0301C267.13 61.1801 262.23 49.7801 254.72 40.2701C251.18 35.5001 247.02 31.1501 244.18 25.9001C241.53 21.0401 241.2 14.8701 243.93 9.97009C247.14 3.80009 254.11 0.210093 260.95 0.350093C300.33 0.330093 339.71 0.310093 379.08 0.350093C384.92 0.360093 391.37 1.9901 394.94 6.9801C399.45 13.3301 399.52 21.4801 399.66 28.9701C399.67 77.6401 399.66 126.32 399.66 175C399.68 180.68 400.25 186.66 403.26 191.62C405.07 194.65 408.31 197.29 412.02 197.01C417.57 196.94 422.66 194.27 427.09 191.13C441.59 180.37 453.31 166.46 464.1 152.1C492.97 113.36 516.1 70.6001 535.68 26.5101C538.68 19.1701 542.17 11.5301 548.78 6.7301C554.8 2.1301 562.52 0.360093 570 0.350093C595 0.320093 620.01 0.330084 645.02 0.340084C651.92 0.430084 659.58 1.2301 664.84 6.1701C669.37 10.4801 669.85 17.3401 668.69 23.1501C665.16 40.4301 656.71 56.1201 648.59 71.6001C626.25 112.29 600.52 150.99 574.24 189.22C569.27 196.68 563.29 203.76 560.53 212.43C558.26 220.22 563.08 227.53 567.67 233.39C577.08 244.88 588.32 254.68 598.67 265.28C609.85 276.17 619.96 288.08 630.25 299.8C641.54 312.92 652.61 326.24 662.73 340.29C669.49 349.87 676.01 359.78 680.35 370.73C682.8 377.18 684.21 384.42 682.34 391.21C680.97 396.26 677.08 400.36 672.37 402.51C666.64 405.2 660.2 405.7 653.96 405.67C631.64 405.66 609.33 405.66 587.01 405.67C579.95 405.73 572.62 405.74 566 402.93C555.52 398.61 547.59 390.13 539.92 382.07C518.93 359.14 498.57 335.44 474.88 315.19C462.83 304.91 450.35 294.72 435.85 288.07C427.85 284.32 418.63 282.97 409.98 285.04C406.34 285.89 403.25 288.58 401.95 292.09C399.47 298.37 399.83 305.28 399.66 311.92C399.67 331.95 399.66 351.98 399.67 372.02C399.64 378.61 400.01 385.68 396.72 391.66C393.52 397.51 387.11 400.57 380.93 402.27C369.89 405.23 358.36 405.51 347 405.65C308.69 405.75 270.93 394.66 237.23 376.83C202.22 358.3 171.23 332.66 145.16 302.94C133.93 290.28 123.83 276.68 114.2 262.78C89.78 228.02 67.44 191.75 48.1 153.9C31.47 121.03 16.63 87.0601 6.51997 51.5701C4.08997 42.5201 1.73997 33.3701 0.879967 24.0101C0.469967 18.1801 1.08995 11.6701 5.17995 7.1401C9.46995 2.3701 16.16 0.900098 22.3 0.480098Z" fill="white"/>
</svg>
