<svg width="966" height="553" viewBox="0 0 966 553" fill="none" xmlns="http://www.w3.org/2000/svg">
<path d="M33.3114 0H144.995C150.73 0.317451 156.535 0.990448 161.915 3.11102C168.12 5.40302 173.429 9.73305 177.405 14.971C182.721 22.0311 186.258 30.2214 189.51 38.3862C204.969 82.0611 223.679 124.587 245.336 165.544C257.937 189.245 271.509 212.451 286.485 234.736C299.25 253.58 312.861 271.986 328.796 288.296C336.436 295.833 344.483 303.331 354.263 308.01C360.056 310.88 367.112 311.375 373.101 308.829C378.08 306.486 380.328 300.969 381.478 295.922C383.752 285.274 383.358 274.31 383.459 263.485C383.453 216.705 383.478 169.932 383.447 123.152C382.577 108.518 379.979 93.8449 374.39 80.2326C370.122 69.6678 363.777 60.0681 356.48 51.3573C351.418 45.0273 345.474 39.0846 342.552 31.3705C340.113 25.0279 340.837 17.5487 344.781 11.9679C349.551 4.63479 358.163 0.412687 366.788 0H536.908C544.421 0.3238 552.684 2.11423 557.682 8.22834C563.443 15.3138 564.3 24.8882 564.669 33.6625C564.662 98.2004 564.669 162.738 564.669 227.276C564.815 237.422 563.741 248.101 568.009 257.631C570.169 262.615 574.265 267.37 579.905 268.202C585.716 268.678 591.54 267.065 596.691 264.443C605.157 259.948 612.372 253.529 619.453 247.168C624.089 242.761 628.986 238.615 633.216 233.803C653.622 211.48 671.64 187.074 688.235 161.824C713.843 122.587 736.249 81.2993 755.773 38.7227C758.535 32.9641 760.619 26.8564 764.055 21.4343C768.443 14.1774 774.877 8.08231 782.638 4.56495C789.091 1.58091 796.197 0.38729 803.247 0H914.874C922.419 0.412687 930.301 1.37774 936.848 5.44746C941.434 8.26008 944.679 13.0726 945.562 18.3741C946.648 24.5517 945.499 30.8626 943.746 36.8053C941.015 48.5319 936.137 59.6046 930.999 70.4488C920.069 92.9688 907.291 114.536 894.137 135.825C866.085 180.852 835.822 224.463 804.892 267.548C802.034 271.491 799.309 275.522 796.775 279.675C793.892 284.582 791.186 289.998 791.466 295.852C791.796 303.064 795.886 309.388 800.11 314.988C805.997 323.172 813.161 330.321 820.446 337.254C838.375 354.656 857.168 371.234 873.744 389.982C891.572 409.493 909.19 429.226 925.69 449.886C933.66 459.949 941.383 470.221 948.369 481.002C953.977 489.751 959.23 498.83 962.844 508.608C964.501 513.242 965.397 518.106 966 522.975V526.461C965.422 531.388 964.152 536.41 961.059 540.404C956.943 545.959 950.414 549.172 943.847 550.829C939.687 551.971 935.369 552.219 931.145 553H817.518C812.037 552.073 806.454 551.476 801.24 549.451C789.021 545.038 779.157 536.194 769.961 527.318C752.781 510.017 736.669 491.681 719.527 474.342C711.106 465.834 702.728 457.288 693.926 449.174C676.886 433.645 659.357 418.515 640.164 405.671C629.342 398.579 617.929 391.932 605.322 388.617C598.704 386.833 591.781 386.706 584.992 387.278C580.076 387.754 574.843 388.967 571.255 392.598C567.095 396.947 565.958 403.15 565.266 408.909C564.396 417.766 564.732 426.68 564.669 435.568C564.669 462.45 564.662 489.326 564.669 516.207C564.472 522.842 563.468 529.813 559.569 535.375C555.377 541.381 548.6 544.924 541.773 547.102C527.883 551.61 513.11 551.794 498.725 553H481.203C475.391 552.302 469.491 552.175 463.655 551.622C428.571 548.575 394.142 539.458 361.688 525.909C298.901 499.643 243.596 457.269 198.687 406.433C183.394 389.335 169.739 370.872 156.307 352.301C120.302 302.55 87.5052 250.393 59.516 195.702C46.6868 170.503 34.8611 144.764 24.5596 118.416C16.2715 96.9305 8.72004 75.0963 3.52485 52.6398C1.91803 45.6368 0.5843 38.5576 0 31.3896V26.3929C0.374714 19.5677 2.48327 12.3869 7.84994 7.80295C14.8361 1.79042 24.4263 0.431734 33.3114 0Z" fill="white"/>
</svg>
