<svg width="797" height="343" viewBox="0 0 797 343" fill="none" xmlns="http://www.w3.org/2000/svg">
<path d="M185.007 153.535C185.007 154.64 185.902 155.535 187.007 155.535H213.185C214.289 155.535 215.185 156.43 215.185 157.535V203.881C215.185 204.985 214.289 205.881 213.185 205.881H183.536C182.431 205.881 181.536 206.776 181.536 207.881V255.426C181.536 256.531 180.641 257.426 179.536 257.426H125.61C124.506 257.426 123.61 256.531 123.61 255.426V207.864C123.61 206.766 122.725 205.873 121.627 205.864L2.96981 204.86C1.8908 204.851 1.01357 203.987 0.987327 202.909L0.014948 162.934C0.00520754 162.533 0.115931 162.139 0.332776 161.802L98.7116 9.00952C99.0798 8.43776 99.7132 8.09224 100.393 8.09224H116.291H183.007C184.111 8.09224 185.007 8.98767 185.007 10.0922V153.535ZM64.2208 152.407C63.3065 153.736 64.2681 155.535 65.8815 155.535H121.61C122.715 155.535 123.61 154.64 123.61 153.535V66.0031C123.61 63.9613 120.902 63.2262 119.867 64.9859C113.952 75.0375 102.232 94.8028 93.6126 108.386C83.9876 123.552 69.6225 144.554 64.2208 152.407Z" fill="black"/>
<path d="M496.509 161.282C493.32 189.218 489.785 205.881 475.821 227.143C462.878 246.849 433.588 265 400.827 265C367.795 265 347.017 252.265 328.937 233.885C310.857 215.504 302.369 196.731 298.94 164.269C297.13 147.139 296.871 145.724 299.974 112.016C303.077 78.3072 317.697 46.6863 320.662 42.5245C323.248 38.8943 347.556 0 398.038 0C430.935 0 458.146 19.1026 469.614 34.7456C484.38 54.8854 489.292 67.7209 493.923 96.4579C497.467 118.45 498.947 139.92 496.509 161.282ZM432.906 102.62C432.906 84.6963 430.119 71.3391 424.546 62.5485C418.972 53.6437 410.136 49.1913 398.038 49.1913C386.212 49.1913 377.58 53.3012 372.142 61.521C366.841 69.7408 363.986 82.1847 363.578 98.8526V162.556C363.578 181.165 366.365 194.807 371.938 203.484C377.512 212.046 386.348 216.327 398.446 216.327C410.136 216.327 418.768 212.16 424.342 203.826C429.915 195.378 432.77 182.192 432.906 164.269V102.62Z" fill="black"/>
<path d="M765.417 154.131C765.436 155.222 766.325 156.096 767.416 156.096H795C796.105 156.096 797 156.991 797 158.096V202.511C797 203.616 796.105 204.511 795 204.511H767.451C766.346 204.511 765.451 205.407 765.451 206.511V255.426C765.451 256.531 764.556 257.426 763.451 257.426H707.973C706.869 257.426 705.973 256.531 705.973 255.426V206.511C705.973 205.407 705.078 204.511 703.973 204.511H584.72C583.68 204.511 582.814 203.714 582.727 202.678L579.315 161.931C579.279 161.509 579.379 161.087 579.598 160.725L626.842 82.9746L676.933 8.97117C677.305 8.42151 677.925 8.09224 678.589 8.09224H700.176H760.9C761.991 8.09224 762.88 8.96652 762.899 10.0573L765.417 154.131ZM645.188 152.085C644.391 153.405 645.324 155.092 646.866 155.118L701.815 156.06C702.954 156.08 703.879 155.146 703.849 154.007L701.501 65.9453C701.447 63.9484 698.822 63.2548 697.789 64.9649L645.188 152.085Z" fill="black"/>
<path d="M81.2856 330.566L85.1821 323.07H87.4175L82.27 332.432V338H80.3013V332.432L75.1538 323.07H77.4097L81.2856 330.566ZM87.7637 332.35C87.7637 331.263 87.9756 330.286 88.3994 329.417C88.8301 328.549 89.4248 327.879 90.1836 327.408C90.9492 326.936 91.8208 326.7 92.7983 326.7C94.3091 326.7 95.5293 327.223 96.459 328.269C97.3955 329.315 97.8638 330.706 97.8638 332.442V332.576C97.8638 333.656 97.6553 334.626 97.2383 335.488C96.8281 336.342 96.2368 337.009 95.4643 337.487C94.6987 337.966 93.8169 338.205 92.8188 338.205C91.3149 338.205 90.0947 337.682 89.1582 336.636C88.2285 335.59 87.7637 334.206 87.7637 332.483V332.35ZM89.6709 332.576C89.6709 333.806 89.9546 334.794 90.522 335.539C91.0962 336.284 91.8618 336.657 92.8188 336.657C93.7827 336.657 94.5483 336.281 95.1157 335.529C95.6831 334.77 95.9668 333.71 95.9668 332.35C95.9668 331.133 95.6763 330.149 95.0952 329.397C94.521 328.638 93.7554 328.259 92.7983 328.259C91.8618 328.259 91.1064 328.631 90.5322 329.376C89.958 330.122 89.6709 331.188 89.6709 332.576ZM106.987 336.903C106.249 337.771 105.165 338.205 103.737 338.205C102.554 338.205 101.652 337.863 101.03 337.18C100.415 336.489 100.103 335.471 100.097 334.124V326.905H101.994V334.073C101.994 335.754 102.677 336.595 104.044 336.595C105.494 336.595 106.457 336.055 106.936 334.975V326.905H108.833V338H107.028L106.987 336.903ZM116.262 332.36C116.262 330.658 116.665 329.291 117.472 328.259C118.279 327.22 119.335 326.7 120.641 326.7C121.939 326.7 122.968 327.145 123.727 328.033V322.25H125.624V338H123.881L123.788 336.811C123.03 337.74 121.974 338.205 120.62 338.205C119.335 338.205 118.286 337.679 117.472 336.626C116.665 335.573 116.262 334.199 116.262 332.504V332.36ZM118.159 332.576C118.159 333.833 118.419 334.818 118.938 335.529C119.458 336.24 120.176 336.595 121.092 336.595C122.295 336.595 123.173 336.055 123.727 334.975V329.879C123.16 328.833 122.288 328.31 121.112 328.31C120.183 328.31 119.458 328.669 118.938 329.387C118.419 330.104 118.159 331.167 118.159 332.576ZM130.533 338H128.636V326.905H130.533V338ZM128.482 323.962C128.482 323.655 128.575 323.395 128.759 323.183C128.951 322.971 129.231 322.865 129.6 322.865C129.969 322.865 130.249 322.971 130.441 323.183C130.632 323.395 130.728 323.655 130.728 323.962C130.728 324.27 130.632 324.526 130.441 324.731C130.249 324.937 129.969 325.039 129.6 325.039C129.231 325.039 128.951 324.937 128.759 324.731C128.575 324.526 128.482 324.27 128.482 323.962ZM133.012 332.36C133.012 330.658 133.415 329.291 134.222 328.259C135.029 327.22 136.085 326.7 137.391 326.7C138.689 326.7 139.718 327.145 140.477 328.033V322.25H142.374V338H140.631L140.538 336.811C139.78 337.74 138.724 338.205 137.37 338.205C136.085 338.205 135.036 337.679 134.222 336.626C133.415 335.573 133.012 334.199 133.012 332.504V332.36ZM134.909 332.576C134.909 333.833 135.169 334.818 135.688 335.529C136.208 336.24 136.926 336.595 137.842 336.595C139.045 336.595 139.923 336.055 140.477 334.975V329.879C139.91 328.833 139.038 328.31 137.862 328.31C136.932 328.31 136.208 328.669 135.688 329.387C135.169 330.104 134.909 331.167 134.909 332.576ZM147.016 326.905L147.078 328.3C147.926 327.233 149.033 326.7 150.4 326.7C152.745 326.7 153.928 328.023 153.948 330.668V338H152.051V330.658C152.044 329.858 151.86 329.267 151.497 328.884C151.142 328.501 150.585 328.31 149.826 328.31C149.211 328.31 148.671 328.474 148.206 328.802C147.741 329.13 147.379 329.561 147.119 330.094V338H145.222V326.905H147.016ZM156.017 327.274L154.94 326.536C155.576 325.647 155.904 324.711 155.925 323.727V322.25H157.801V323.583C157.794 324.267 157.623 324.95 157.288 325.634C156.96 326.311 156.536 326.857 156.017 327.274ZM162.556 324.219V326.905H164.628V328.372H162.556V335.252C162.556 335.696 162.649 336.031 162.833 336.257C163.018 336.476 163.332 336.585 163.777 336.585C163.995 336.585 164.296 336.544 164.679 336.462V338C164.18 338.137 163.695 338.205 163.223 338.205C162.375 338.205 161.736 337.949 161.305 337.436C160.875 336.923 160.659 336.195 160.659 335.252V328.372H158.639V326.905H160.659V324.219H162.556ZM181.244 332.576C181.244 334.271 180.855 335.635 180.075 336.667C179.296 337.692 178.25 338.205 176.938 338.205C175.536 338.205 174.453 337.709 173.687 336.718L173.595 338H171.852V322.25H173.749V328.125C174.514 327.175 175.571 326.7 176.917 326.7C178.264 326.7 179.32 327.209 180.086 328.228C180.858 329.247 181.244 330.641 181.244 332.412V332.576ZM179.347 332.36C179.347 331.068 179.098 330.07 178.599 329.366C178.1 328.662 177.382 328.31 176.446 328.31C175.195 328.31 174.296 328.891 173.749 330.053V334.852C174.33 336.014 175.236 336.595 176.466 336.595C177.375 336.595 178.083 336.243 178.589 335.539C179.095 334.835 179.347 333.775 179.347 332.36ZM188.902 328.607C188.615 328.56 188.303 328.536 187.969 328.536C186.724 328.536 185.88 329.065 185.436 330.125V338H183.539V326.905H185.385L185.415 328.187C186.037 327.196 186.919 326.7 188.061 326.7C188.43 326.7 188.71 326.748 188.902 326.844V328.607ZM194.949 338.205C193.445 338.205 192.221 337.713 191.278 336.729C190.335 335.737 189.863 334.415 189.863 332.76V332.412C189.863 331.311 190.072 330.33 190.489 329.469C190.912 328.601 191.5 327.924 192.252 327.438C193.011 326.946 193.831 326.7 194.713 326.7C196.156 326.7 197.277 327.175 198.076 328.125C198.876 329.076 199.276 330.436 199.276 332.207V332.996H191.76C191.787 334.09 192.105 334.975 192.714 335.652C193.329 336.322 194.108 336.657 195.052 336.657C195.721 336.657 196.289 336.52 196.754 336.247C197.218 335.973 197.625 335.611 197.974 335.16L199.133 336.062C198.203 337.491 196.808 338.205 194.949 338.205ZM194.713 328.259C193.948 328.259 193.305 328.539 192.785 329.1C192.266 329.653 191.945 330.433 191.822 331.438H197.379V331.294C197.324 330.33 197.065 329.585 196.6 329.059C196.135 328.525 195.506 328.259 194.713 328.259ZM208.225 338C208.116 337.781 208.027 337.392 207.959 336.831C207.077 337.747 206.024 338.205 204.801 338.205C203.707 338.205 202.808 337.897 202.104 337.282C201.406 336.66 201.058 335.874 201.058 334.924C201.058 333.769 201.495 332.873 202.37 332.237C203.252 331.595 204.489 331.273 206.082 331.273H207.928V330.402C207.928 329.739 207.73 329.212 207.333 328.823C206.937 328.426 206.352 328.228 205.58 328.228C204.903 328.228 204.336 328.399 203.878 328.741C203.42 329.083 203.191 329.496 203.191 329.981H201.283C201.283 329.428 201.478 328.895 201.868 328.382C202.264 327.862 202.798 327.452 203.467 327.151C204.144 326.851 204.886 326.7 205.693 326.7C206.971 326.7 207.972 327.021 208.697 327.664C209.422 328.3 209.798 329.178 209.825 330.299V335.406C209.825 336.424 209.955 337.234 210.215 337.836V338H208.225ZM205.077 336.554C205.672 336.554 206.236 336.4 206.769 336.093C207.302 335.785 207.689 335.385 207.928 334.893V332.617H206.441C204.117 332.617 202.955 333.297 202.955 334.657C202.955 335.252 203.153 335.717 203.55 336.052C203.946 336.387 204.455 336.554 205.077 336.554ZM215.79 332.863L214.601 334.104V338H212.704V322.25H214.601V331.776L215.616 330.556L219.071 326.905H221.379L217.062 331.54L221.881 338H219.656L215.79 332.863ZM230.91 324.219V326.905H232.981V328.372H230.91V335.252C230.91 335.696 231.002 336.031 231.187 336.257C231.371 336.476 231.686 336.585 232.13 336.585C232.349 336.585 232.65 336.544 233.032 336.462V338C232.533 338.137 232.048 338.205 231.576 338.205C230.729 338.205 230.09 337.949 229.659 337.436C229.228 336.923 229.013 336.195 229.013 335.252V328.372H226.993V326.905H229.013V324.219H230.91ZM236.998 328.249C237.839 327.216 238.933 326.7 240.279 326.7C242.624 326.7 243.807 328.023 243.827 330.668V338H241.93V330.658C241.923 329.858 241.739 329.267 241.377 328.884C241.021 328.501 240.464 328.31 239.705 328.31C239.09 328.31 238.55 328.474 238.085 328.802C237.62 329.13 237.258 329.561 236.998 330.094V338H235.101V322.25H236.998V328.249ZM251.167 338.205C249.663 338.205 248.439 337.713 247.496 336.729C246.552 335.737 246.081 334.415 246.081 332.76V332.412C246.081 331.311 246.289 330.33 246.706 329.469C247.13 328.601 247.718 327.924 248.47 327.438C249.229 326.946 250.049 326.7 250.931 326.7C252.373 326.7 253.494 327.175 254.294 328.125C255.094 329.076 255.494 330.436 255.494 332.207V332.996H247.978C248.005 334.09 248.323 334.975 248.931 335.652C249.547 336.322 250.326 336.657 251.269 336.657C251.939 336.657 252.506 336.52 252.971 336.247C253.436 335.973 253.843 335.611 254.192 335.16L255.35 336.062C254.421 337.491 253.026 338.205 251.167 338.205ZM250.931 328.259C250.165 328.259 249.523 328.539 249.003 329.1C248.484 329.653 248.162 330.433 248.039 331.438H253.597V331.294C253.542 330.33 253.282 329.585 252.818 329.059C252.353 328.525 251.724 328.259 250.931 328.259ZM264.758 338H262.861V326.905H264.758V338ZM262.708 323.962C262.708 323.655 262.8 323.395 262.984 323.183C263.176 322.971 263.456 322.865 263.825 322.865C264.194 322.865 264.475 322.971 264.666 323.183C264.857 323.395 264.953 323.655 264.953 323.962C264.953 324.27 264.857 324.526 264.666 324.731C264.475 324.937 264.194 325.039 263.825 325.039C263.456 325.039 263.176 324.937 262.984 324.731C262.8 324.526 262.708 324.27 262.708 323.962ZM269.493 326.905L269.555 328.3C270.402 327.233 271.51 326.7 272.877 326.7C275.222 326.7 276.404 328.023 276.425 330.668V338H274.528V330.658C274.521 329.858 274.336 329.267 273.974 328.884C273.619 328.501 273.062 328.31 272.303 328.31C271.688 328.31 271.148 328.474 270.683 328.802C270.218 329.13 269.856 329.561 269.596 330.094V338H267.699V326.905H269.493ZM281.754 324.219V326.905H283.826V328.372H281.754V335.252C281.754 335.696 281.847 336.031 282.031 336.257C282.216 336.476 282.53 336.585 282.975 336.585C283.193 336.585 283.494 336.544 283.877 336.462V338C283.378 338.137 282.893 338.205 282.421 338.205C281.573 338.205 280.934 337.949 280.503 337.436C280.073 336.923 279.857 336.195 279.857 335.252V328.372H277.837V326.905H279.857V324.219H281.754ZM290.55 338.205C289.046 338.205 287.822 337.713 286.879 336.729C285.936 335.737 285.464 334.415 285.464 332.76V332.412C285.464 331.311 285.672 330.33 286.089 329.469C286.513 328.601 287.101 327.924 287.853 327.438C288.612 326.946 289.432 326.7 290.314 326.7C291.756 326.7 292.877 327.175 293.677 328.125C294.477 329.076 294.877 330.436 294.877 332.207V332.996H287.361C287.388 334.09 287.706 334.975 288.314 335.652C288.93 336.322 289.709 336.657 290.652 336.657C291.322 336.657 291.89 336.52 292.355 336.247C292.819 335.973 293.226 335.611 293.575 335.16L294.733 336.062C293.804 337.491 292.409 338.205 290.55 338.205ZM290.314 328.259C289.548 328.259 288.906 328.539 288.386 329.1C287.867 329.653 287.545 330.433 287.422 331.438H292.98V331.294C292.925 330.33 292.666 329.585 292.201 329.059C291.736 328.525 291.107 328.259 290.314 328.259ZM302.339 328.607C302.052 328.56 301.741 328.536 301.406 328.536C300.162 328.536 299.318 329.065 298.874 330.125V338H296.977V326.905H298.822L298.853 328.187C299.475 327.196 300.357 326.7 301.499 326.7C301.868 326.7 302.148 326.748 302.339 326.844V328.607ZM305.782 326.905L305.844 328.3C306.691 327.233 307.799 326.7 309.166 326.7C311.511 326.7 312.693 328.023 312.714 330.668V338H310.817V330.658C310.81 329.858 310.625 329.267 310.263 328.884C309.908 328.501 309.351 328.31 308.592 328.31C307.977 328.31 307.437 328.474 306.972 328.802C306.507 329.13 306.145 329.561 305.885 330.094V338H303.988V326.905H305.782ZM320.074 338.205C318.57 338.205 317.346 337.713 316.403 336.729C315.459 335.737 314.988 334.415 314.988 332.76V332.412C314.988 331.311 315.196 330.33 315.613 329.469C316.037 328.601 316.625 327.924 317.377 327.438C318.136 326.946 318.956 326.7 319.838 326.7C321.28 326.7 322.401 327.175 323.201 328.125C324.001 329.076 324.401 330.436 324.401 332.207V332.996H316.885C316.912 334.09 317.23 334.975 317.838 335.652C318.454 336.322 319.233 336.657 320.176 336.657C320.846 336.657 321.414 336.52 321.878 336.247C322.343 335.973 322.75 335.611 323.099 335.16L324.257 336.062C323.328 337.491 321.933 338.205 320.074 338.205ZM319.838 328.259C319.072 328.259 318.43 328.539 317.91 329.1C317.391 329.653 317.069 330.433 316.946 331.438H322.504V331.294C322.449 330.33 322.189 329.585 321.725 329.059C321.26 328.525 320.631 328.259 319.838 328.259ZM329.074 324.219V326.905H331.145V328.372H329.074V335.252C329.074 335.696 329.166 336.031 329.351 336.257C329.536 336.476 329.85 336.585 330.294 336.585C330.513 336.585 330.814 336.544 331.197 336.462V338C330.698 338.137 330.212 338.205 329.741 338.205C328.893 338.205 328.254 337.949 327.823 337.436C327.393 336.923 327.177 336.195 327.177 335.252V328.372H325.157V326.905H327.177V324.219H329.074ZM347.762 332.576C347.762 334.271 347.372 335.635 346.593 336.667C345.814 337.692 344.768 338.205 343.455 338.205C342.054 338.205 340.971 337.709 340.205 336.718L340.113 338H338.37V322.25H340.267V328.125C341.032 327.175 342.088 326.7 343.435 326.7C344.782 326.7 345.838 327.209 346.603 328.228C347.376 329.247 347.762 330.641 347.762 332.412V332.576ZM345.865 332.36C345.865 331.068 345.616 330.07 345.117 329.366C344.618 328.662 343.9 328.31 342.963 328.31C341.712 328.31 340.813 328.891 340.267 330.053V334.852C340.848 336.014 341.753 336.595 342.984 336.595C343.893 336.595 344.6 336.243 345.106 335.539C345.612 334.835 345.865 333.775 345.865 332.36ZM356.906 336.903C356.168 337.771 355.084 338.205 353.656 338.205C352.473 338.205 351.571 337.863 350.949 337.18C350.333 336.489 350.022 335.471 350.016 334.124V326.905H351.912V334.073C351.912 335.754 352.596 336.595 353.963 336.595C355.412 336.595 356.376 336.055 356.855 334.975V326.905H358.752V338H356.947L356.906 336.903ZM364.112 324.219V326.905H366.183V328.372H364.112V335.252C364.112 335.696 364.204 336.031 364.389 336.257C364.574 336.476 364.888 336.585 365.332 336.585C365.551 336.585 365.852 336.544 366.235 336.462V338C365.736 338.137 365.25 338.205 364.779 338.205C363.931 338.205 363.292 337.949 362.861 337.436C362.431 336.923 362.215 336.195 362.215 335.252V328.372H360.195V326.905H362.215V324.219H364.112ZM383.231 335.385L385.364 326.905H387.261L384.031 338H382.492L379.796 329.592L377.171 338H375.633L372.413 326.905H374.3L376.484 335.211L379.068 326.905H380.596L383.231 335.385ZM393.698 338.205C392.194 338.205 390.97 337.713 390.027 336.729C389.083 335.737 388.612 334.415 388.612 332.76V332.412C388.612 331.311 388.82 330.33 389.237 329.469C389.661 328.601 390.249 327.924 391.001 327.438C391.76 326.946 392.58 326.7 393.462 326.7C394.904 326.7 396.025 327.175 396.825 328.125C397.625 329.076 398.025 330.436 398.025 332.207V332.996H390.509C390.536 334.09 390.854 334.975 391.462 335.652C392.077 336.322 392.857 336.657 393.8 336.657C394.47 336.657 395.037 336.52 395.502 336.247C395.967 335.973 396.374 335.611 396.722 335.16L397.881 336.062C396.951 337.491 395.557 338.205 393.698 338.205ZM393.462 328.259C392.696 328.259 392.054 328.539 391.534 329.1C391.014 329.653 390.693 330.433 390.57 331.438H396.128V331.294C396.073 330.33 395.813 329.585 395.348 329.059C394.884 328.525 394.255 328.259 393.462 328.259ZM409.678 336.657C410.355 336.657 410.947 336.452 411.452 336.042C411.958 335.631 412.239 335.119 412.293 334.503H414.088C414.053 335.139 413.835 335.744 413.431 336.318C413.028 336.893 412.488 337.351 411.811 337.692C411.141 338.034 410.43 338.205 409.678 338.205C408.168 338.205 406.965 337.703 406.069 336.698C405.18 335.686 404.736 334.305 404.736 332.555V332.237C404.736 331.157 404.934 330.197 405.331 329.356C405.727 328.515 406.295 327.862 407.033 327.397C407.778 326.933 408.656 326.7 409.668 326.7C410.912 326.7 411.945 327.073 412.765 327.818C413.592 328.563 414.033 329.53 414.088 330.72H412.293C412.239 330.002 411.965 329.414 411.473 328.956C410.988 328.491 410.386 328.259 409.668 328.259C408.704 328.259 407.956 328.607 407.423 329.305C406.896 329.995 406.633 330.997 406.633 332.309V332.668C406.633 333.946 406.896 334.931 407.423 335.621C407.949 336.312 408.701 336.657 409.678 336.657ZM422.965 338C422.856 337.781 422.767 337.392 422.698 336.831C421.817 337.747 420.764 338.205 419.54 338.205C418.447 338.205 417.548 337.897 416.844 337.282C416.146 336.66 415.798 335.874 415.798 334.924C415.798 333.769 416.235 332.873 417.11 332.237C417.992 331.595 419.229 331.273 420.822 331.273H422.668V330.402C422.668 329.739 422.469 329.212 422.073 328.823C421.677 328.426 421.092 328.228 420.32 328.228C419.643 328.228 419.075 328.399 418.617 328.741C418.159 329.083 417.93 329.496 417.93 329.981H416.023C416.023 329.428 416.218 328.895 416.608 328.382C417.004 327.862 417.537 327.452 418.207 327.151C418.884 326.851 419.626 326.7 420.432 326.7C421.711 326.7 422.712 327.021 423.437 327.664C424.161 328.3 424.537 329.178 424.565 330.299V335.406C424.565 336.424 424.695 337.234 424.954 337.836V338H422.965ZM419.817 336.554C420.412 336.554 420.976 336.4 421.509 336.093C422.042 335.785 422.428 335.385 422.668 334.893V332.617H421.181C418.857 332.617 417.695 333.297 417.695 334.657C417.695 335.252 417.893 335.717 418.289 336.052C418.686 336.387 419.195 336.554 419.817 336.554ZM429.228 326.905L429.289 328.3C430.137 327.233 431.244 326.7 432.612 326.7C434.956 326.7 436.139 328.023 436.159 330.668V338H434.262V330.658C434.256 329.858 434.071 329.267 433.709 328.884C433.353 328.501 432.796 328.31 432.037 328.31C431.422 328.31 430.882 328.474 430.417 328.802C429.952 329.13 429.59 329.561 429.33 330.094V338H427.433V326.905H429.228ZM438.228 327.274L437.152 326.536C437.787 325.647 438.115 324.711 438.136 323.727V322.25H440.012V323.583C440.006 324.267 439.835 324.95 439.5 325.634C439.172 326.311 438.748 326.857 438.228 327.274ZM444.768 324.219V326.905H446.839V328.372H444.768V335.252C444.768 335.696 444.86 336.031 445.045 336.257C445.229 336.476 445.544 336.585 445.988 336.585C446.207 336.585 446.508 336.544 446.89 336.462V338C446.391 338.137 445.906 338.205 445.434 338.205C444.587 338.205 443.947 337.949 443.517 337.436C443.086 336.923 442.871 336.195 442.871 335.252V328.372H440.851V326.905H442.871V324.219H444.768ZM454.699 338V328.372H452.945V326.905H454.699V325.962C454.699 324.725 455.051 323.761 455.755 323.07C456.466 322.38 457.467 322.035 458.759 322.035C459.525 322.035 460.492 322.243 461.661 322.66L461.343 324.26C460.489 323.918 459.675 323.747 458.903 323.747C458.089 323.747 457.502 323.932 457.139 324.301C456.784 324.663 456.606 325.21 456.606 325.941V326.905H458.872V328.372H456.606V338H454.699ZM462.605 338H460.697V326.905H462.605V338ZM467.38 326.905L467.442 328.3C468.29 327.233 469.397 326.7 470.764 326.7C473.109 326.7 474.292 328.023 474.312 330.668V338H472.415V330.658C472.408 329.858 472.224 329.267 471.861 328.884C471.506 328.501 470.949 328.31 470.19 328.31C469.575 328.31 469.035 328.474 468.57 328.802C468.105 329.13 467.743 329.561 467.483 330.094V338H465.586V326.905H467.38ZM476.607 332.36C476.607 330.658 477.01 329.291 477.816 328.259C478.623 327.22 479.679 326.7 480.985 326.7C482.284 326.7 483.313 327.145 484.071 328.033V322.25H485.968V338H484.225L484.133 336.811C483.374 337.74 482.318 338.205 480.964 338.205C479.679 338.205 478.63 337.679 477.816 336.626C477.01 335.573 476.607 334.199 476.607 332.504V332.36ZM478.504 332.576C478.504 333.833 478.763 334.818 479.283 335.529C479.802 336.24 480.52 336.595 481.436 336.595C482.639 336.595 483.518 336.055 484.071 334.975V329.879C483.504 328.833 482.632 328.31 481.457 328.31C480.527 328.31 479.802 328.669 479.283 329.387C478.763 330.104 478.504 331.167 478.504 332.576ZM503.744 335.385L505.877 326.905H507.773L504.544 338H503.005L500.309 329.592L497.684 338H496.146L492.926 326.905H494.813L496.997 335.211L499.581 326.905H501.108L503.744 335.385ZM511.503 328.249C512.344 327.216 513.438 326.7 514.785 326.7C517.129 326.7 518.312 328.023 518.333 330.668V338H516.436V330.658C516.429 329.858 516.244 329.267 515.882 328.884C515.526 328.501 514.969 328.31 514.21 328.31C513.595 328.31 513.055 328.474 512.59 328.802C512.126 329.13 511.763 329.561 511.503 330.094V338H509.606V322.25H511.503V328.249ZM527.918 338C527.808 337.781 527.719 337.392 527.651 336.831C526.769 337.747 525.716 338.205 524.493 338.205C523.399 338.205 522.5 337.897 521.796 337.282C521.099 336.66 520.75 335.874 520.75 334.924C520.75 333.769 521.188 332.873 522.063 332.237C522.944 331.595 524.182 331.273 525.774 331.273H527.62V330.402C527.62 329.739 527.422 329.212 527.025 328.823C526.629 328.426 526.044 328.228 525.272 328.228C524.595 328.228 524.028 328.399 523.57 328.741C523.112 329.083 522.883 329.496 522.883 329.981H520.976C520.976 329.428 521.17 328.895 521.56 328.382C521.957 327.862 522.49 327.452 523.16 327.151C523.836 326.851 524.578 326.7 525.385 326.7C526.663 326.7 527.665 327.021 528.389 327.664C529.114 328.3 529.49 329.178 529.517 330.299V335.406C529.517 336.424 529.647 337.234 529.907 337.836V338H527.918ZM524.77 336.554C525.364 336.554 525.928 336.4 526.461 336.093C526.995 335.785 527.381 335.385 527.62 334.893V332.617H526.133C523.809 332.617 522.647 333.297 522.647 334.657C522.647 335.252 522.845 335.717 523.242 336.052C523.638 336.387 524.147 336.554 524.77 336.554ZM534.959 324.219V326.905H537.031V328.372H534.959V335.252C534.959 335.696 535.052 336.031 535.236 336.257C535.421 336.476 535.735 336.585 536.18 336.585C536.398 336.585 536.699 336.544 537.082 336.462V338C536.583 338.137 536.098 338.205 535.626 338.205C534.778 338.205 534.139 337.949 533.708 337.436C533.278 336.923 533.062 336.195 533.062 335.252V328.372H531.042V326.905H533.062V324.219H534.959ZM547.885 335.221L550.469 326.905H552.499L548.039 339.712C547.348 341.558 546.251 342.481 544.747 342.481L544.388 342.45L543.681 342.317V340.779L544.193 340.82C544.836 340.82 545.335 340.69 545.69 340.43C546.053 340.17 546.35 339.695 546.582 339.005L547.003 337.877L543.045 326.905H545.116L547.885 335.221ZM553.43 332.35C553.43 331.263 553.642 330.286 554.065 329.417C554.496 328.549 555.091 327.879 555.85 327.408C556.615 326.936 557.487 326.7 558.464 326.7C559.975 326.7 561.195 327.223 562.125 328.269C563.061 329.315 563.53 330.706 563.53 332.442V332.576C563.53 333.656 563.321 334.626 562.904 335.488C562.494 336.342 561.903 337.009 561.13 337.487C560.365 337.966 559.483 338.205 558.485 338.205C556.981 338.205 555.761 337.682 554.824 336.636C553.894 335.59 553.43 334.206 553.43 332.483V332.35ZM555.337 332.576C555.337 333.806 555.621 334.794 556.188 335.539C556.762 336.284 557.528 336.657 558.485 336.657C559.449 336.657 560.214 336.281 560.782 335.529C561.349 334.77 561.633 333.71 561.633 332.35C561.633 331.133 561.342 330.149 560.761 329.397C560.187 328.638 559.421 328.259 558.464 328.259C557.528 328.259 556.772 328.631 556.198 329.376C555.624 330.122 555.337 331.188 555.337 332.576ZM572.653 336.903C571.915 337.771 570.831 338.205 569.403 338.205C568.22 338.205 567.318 337.863 566.696 337.18C566.08 336.489 565.769 335.471 565.763 334.124V326.905H567.66V334.073C567.66 335.754 568.343 336.595 569.71 336.595C571.16 336.595 572.123 336.055 572.602 334.975V326.905H574.499V338H572.694L572.653 336.903ZM589.239 338C589.13 337.781 589.041 337.392 588.973 336.831C588.091 337.747 587.038 338.205 585.814 338.205C584.721 338.205 583.822 337.897 583.118 337.282C582.42 336.66 582.072 335.874 582.072 334.924C582.072 333.769 582.509 332.873 583.384 332.237C584.266 331.595 585.503 331.273 587.096 331.273H588.942V330.402C588.942 329.739 588.744 329.212 588.347 328.823C587.951 328.426 587.366 328.228 586.594 328.228C585.917 328.228 585.349 328.399 584.891 328.741C584.433 329.083 584.204 329.496 584.204 329.981H582.297C582.297 329.428 582.492 328.895 582.882 328.382C583.278 327.862 583.811 327.452 584.481 327.151C585.158 326.851 585.9 326.7 586.706 326.7C587.985 326.7 588.986 327.021 589.711 327.664C590.435 328.3 590.811 329.178 590.839 330.299V335.406C590.839 336.424 590.969 337.234 591.228 337.836V338H589.239ZM586.091 336.554C586.686 336.554 587.25 336.4 587.783 336.093C588.316 335.785 588.703 335.385 588.942 334.893V332.617H587.455C585.131 332.617 583.969 333.297 583.969 334.657C583.969 335.252 584.167 335.717 584.563 336.052C584.96 336.387 585.469 336.554 586.091 336.554ZM599.07 328.607C598.783 328.56 598.472 328.536 598.137 328.536C596.893 328.536 596.049 329.065 595.604 330.125V338H593.707V326.905H595.553L595.584 328.187C596.206 327.196 597.088 326.7 598.229 326.7C598.599 326.7 598.879 326.748 599.07 326.844V328.607ZM605.117 338.205C603.614 338.205 602.39 337.713 601.447 336.729C600.503 335.737 600.032 334.415 600.032 332.76V332.412C600.032 331.311 600.24 330.33 600.657 329.469C601.081 328.601 601.669 327.924 602.421 327.438C603.18 326.946 604 326.7 604.882 326.7C606.324 326.7 607.445 327.175 608.245 328.125C609.045 329.076 609.445 330.436 609.445 332.207V332.996H601.929C601.956 334.09 602.274 334.975 602.882 335.652C603.497 336.322 604.277 336.657 605.22 336.657C605.89 336.657 606.457 336.52 606.922 336.247C607.387 335.973 607.794 335.611 608.142 335.16L609.301 336.062C608.371 337.491 606.977 338.205 605.117 338.205ZM604.882 328.259C604.116 328.259 603.473 328.539 602.954 329.1C602.434 329.653 602.113 330.433 601.99 331.438H607.548V331.294C607.493 330.33 607.233 329.585 606.768 329.059C606.304 328.525 605.675 328.259 604.882 328.259ZM618.709 338H616.812V322.25H618.709V338ZM621.147 332.35C621.147 331.263 621.359 330.286 621.783 329.417C622.214 328.549 622.808 327.879 623.567 327.408C624.333 326.936 625.204 326.7 626.182 326.7C627.693 326.7 628.913 327.223 629.843 328.269C630.779 329.315 631.247 330.706 631.247 332.442V332.576C631.247 333.656 631.039 334.626 630.622 335.488C630.212 336.342 629.62 337.009 628.848 337.487C628.082 337.966 627.2 338.205 626.202 338.205C624.698 338.205 623.478 337.682 622.542 336.636C621.612 335.59 621.147 334.206 621.147 332.483V332.35ZM623.054 332.576C623.054 333.806 623.338 334.794 623.906 335.539C624.48 336.284 625.245 336.657 626.202 336.657C627.166 336.657 627.932 336.281 628.499 335.529C629.067 334.77 629.35 333.71 629.35 332.35C629.35 331.133 629.06 330.149 628.479 329.397C627.905 328.638 627.139 328.259 626.182 328.259C625.245 328.259 624.49 328.631 623.916 329.376C623.342 330.122 623.054 331.188 623.054 332.576ZM633.019 332.35C633.019 331.263 633.231 330.286 633.655 329.417C634.085 328.549 634.68 327.879 635.439 327.408C636.204 326.936 637.076 326.7 638.053 326.7C639.564 326.7 640.784 327.223 641.714 328.269C642.651 329.315 643.119 330.706 643.119 332.442V332.576C643.119 333.656 642.91 334.626 642.493 335.488C642.083 336.342 641.492 337.009 640.719 337.487C639.954 337.966 639.072 338.205 638.074 338.205C636.57 338.205 635.35 337.682 634.413 336.636C633.484 335.59 633.019 334.206 633.019 332.483V332.35ZM634.926 332.576C634.926 333.806 635.21 334.794 635.777 335.539C636.351 336.284 637.117 336.657 638.074 336.657C639.038 336.657 639.803 336.281 640.371 335.529C640.938 334.77 641.222 333.71 641.222 332.35C641.222 331.133 640.931 330.149 640.35 329.397C639.776 328.638 639.01 328.259 638.053 328.259C637.117 328.259 636.362 328.631 635.787 329.376C635.213 330.122 634.926 331.188 634.926 332.576ZM648.49 332.863L647.3 334.104V338H645.403V322.25H647.3V331.776L648.315 330.556L651.771 326.905H654.078L649.761 331.54L654.58 338H652.355L648.49 332.863ZM657.992 338H656.095V326.905H657.992V338ZM655.942 323.962C655.942 323.655 656.034 323.395 656.219 323.183C656.41 322.971 656.69 322.865 657.059 322.865C657.428 322.865 657.709 322.971 657.9 323.183C658.092 323.395 658.187 323.655 658.187 323.962C658.187 324.27 658.092 324.526 657.9 324.731C657.709 324.937 657.428 325.039 657.059 325.039C656.69 325.039 656.41 324.937 656.219 324.731C656.034 324.526 655.942 324.27 655.942 323.962ZM662.727 326.905L662.789 328.3C663.636 327.233 664.744 326.7 666.111 326.7C668.456 326.7 669.638 328.023 669.659 330.668V338H667.762V330.658C667.755 329.858 667.57 329.267 667.208 328.884C666.853 328.501 666.296 328.31 665.537 328.31C664.922 328.31 664.382 328.474 663.917 328.802C663.452 329.13 663.09 329.561 662.83 330.094V338H660.933V326.905H662.727ZM671.964 332.36C671.964 330.631 672.363 329.257 673.163 328.238C673.963 327.213 675.023 326.7 676.342 326.7C677.695 326.7 678.752 327.179 679.51 328.136L679.603 326.905H681.336V337.733C681.336 339.169 680.908 340.3 680.054 341.127C679.206 341.955 678.065 342.368 676.629 342.368C675.829 342.368 675.047 342.197 674.281 341.855C673.515 341.514 672.931 341.045 672.528 340.451L673.512 339.312C674.325 340.317 675.32 340.82 676.496 340.82C677.419 340.82 678.136 340.56 678.649 340.041C679.169 339.521 679.428 338.79 679.428 337.846V336.893C678.67 337.768 677.634 338.205 676.321 338.205C675.023 338.205 673.97 337.682 673.163 336.636C672.363 335.59 671.964 334.165 671.964 332.36ZM673.871 332.576C673.871 333.827 674.127 334.811 674.64 335.529C675.153 336.24 675.87 336.595 676.793 336.595C677.989 336.595 678.868 336.052 679.428 334.965V329.899C678.847 328.84 677.976 328.31 676.814 328.31C675.891 328.31 675.17 328.669 674.65 329.387C674.131 330.104 673.871 331.167 673.871 332.576ZM690.139 338V328.372H688.385V326.905H690.139V325.767C690.139 324.578 690.457 323.658 691.092 323.009C691.728 322.359 692.627 322.035 693.789 322.035C694.227 322.035 694.661 322.093 695.091 322.209L694.989 323.747C694.668 323.686 694.326 323.655 693.964 323.655C693.348 323.655 692.873 323.836 692.538 324.198C692.203 324.554 692.036 325.066 692.036 325.736V326.905H694.404V328.372H692.036V338H690.139ZM695.899 332.35C695.899 331.263 696.111 330.286 696.535 329.417C696.965 328.549 697.56 327.879 698.319 327.408C699.085 326.936 699.956 326.7 700.934 326.7C702.444 326.7 703.665 327.223 704.594 328.269C705.531 329.315 705.999 330.706 705.999 332.442V332.576C705.999 333.656 705.791 334.626 705.374 335.488C704.964 336.342 704.372 337.009 703.6 337.487C702.834 337.966 701.952 338.205 700.954 338.205C699.45 338.205 698.23 337.682 697.294 336.636C696.364 335.59 695.899 334.206 695.899 332.483V332.35ZM697.806 332.576C697.806 333.806 698.09 334.794 698.657 335.539C699.232 336.284 699.997 336.657 700.954 336.657C701.918 336.657 702.684 336.281 703.251 335.529C703.818 334.77 704.102 333.71 704.102 332.35C704.102 331.133 703.812 330.149 703.231 329.397C702.656 328.638 701.891 328.259 700.934 328.259C699.997 328.259 699.242 328.631 698.668 329.376C698.093 330.122 697.806 331.188 697.806 332.576ZM713.636 328.607C713.349 328.56 713.038 328.536 712.703 328.536C711.459 328.536 710.614 329.065 710.17 330.125V338H708.273V326.905H710.119L710.15 328.187C710.772 327.196 711.653 326.7 712.795 326.7C713.164 326.7 713.444 326.748 713.636 326.844V328.607ZM714.054 337.005C714.054 336.677 714.149 336.404 714.341 336.185C714.539 335.966 714.833 335.857 715.223 335.857C715.612 335.857 715.906 335.966 716.105 336.185C716.31 336.404 716.412 336.677 716.412 337.005C716.412 337.32 716.31 337.583 716.105 337.795C715.906 338.007 715.612 338.113 715.223 338.113C714.833 338.113 714.539 338.007 714.341 337.795C714.149 337.583 714.054 337.32 714.054 337.005Z" fill="black"/>
</svg>
