<svg width="1018" height="439" viewBox="0 0 1018 439" fill="none" xmlns="http://www.w3.org/2000/svg">
<rect x="1" y="1" width="1016" height="437" rx="3" stroke="white" stroke-width="2"/>
<path d="M348.126 214.149C348.126 215.253 349.021 216.149 350.126 216.149H368.901C370.005 216.149 370.901 217.044 370.901 218.149V252.042C370.901 253.147 370.005 254.042 368.901 254.042H347.506C346.402 254.042 345.506 254.938 345.506 256.042V290.84C345.506 291.944 344.611 292.84 343.506 292.84H303.789C302.685 292.84 301.789 291.944 301.789 290.84V256.026C301.789 254.928 300.904 254.035 299.806 254.026L211.216 253.278C210.137 253.269 209.26 252.406 209.233 251.327L208.515 221.871C208.505 221.469 208.616 221.074 208.834 220.737L282.853 106.087C283.221 105.517 283.854 105.172 284.533 105.172H296.265H346.126C347.23 105.172 348.126 106.067 348.126 107.172V214.149ZM257.506 213.014C256.59 214.343 257.549 216.149 259.163 216.149H299.789C300.894 216.149 301.789 215.253 301.789 214.149V150.574C301.789 148.533 299.087 147.787 298.049 149.544C293.371 157.457 285.236 171.095 279.15 180.66C272.185 191.605 261.933 206.587 257.506 213.014Z" fill="white"/>
<path d="M583.218 220.474C580.811 241.501 578.143 254.042 567.605 270.046C557.837 284.879 535.731 298.54 511.006 298.54C486.077 298.54 470.395 288.955 456.75 275.12C443.106 261.286 436.699 247.156 434.111 222.722C432.746 209.829 432.55 208.764 434.892 183.393C437.234 158.021 448.268 134.221 450.505 131.088C452.457 128.356 470.802 99.0811 508.901 99.0811C533.729 99.0811 554.265 113.459 562.921 125.233C574.064 140.392 577.771 150.053 581.266 171.683C583.941 188.236 585.058 204.395 583.218 220.474ZM535.216 176.321C535.216 162.83 533.113 152.776 528.907 146.16C524.701 139.457 518.032 136.106 508.901 136.106C499.976 136.106 493.461 139.2 489.358 145.386C485.357 151.573 483.202 160.939 482.894 173.485V221.433C482.894 235.439 484.998 245.708 489.204 252.239C493.41 258.683 500.079 261.905 509.209 261.905C518.032 261.905 524.547 258.769 528.753 252.496C532.959 246.138 535.114 236.213 535.216 222.722V176.321Z" fill="white"/>
<path d="M786.155 214.606C786.175 215.696 787.064 216.571 788.155 216.571H808C809.105 216.571 810 217.466 810 218.571V251.012C810 252.116 809.105 253.012 808 253.012H788.19C787.085 253.012 786.19 253.907 786.19 255.012V290.84C786.19 291.944 785.294 292.84 784.19 292.84H743.302C742.197 292.84 741.302 291.944 741.302 290.84V255.012C741.302 253.907 740.406 253.012 739.302 253.012H650.242C649.202 253.012 648.336 252.215 648.249 251.179L645.725 221.125C645.69 220.702 645.79 220.279 646.01 219.917L681.581 161.534L719.239 106.049C719.611 105.5 720.231 105.172 720.893 105.172H736.926H782.273C783.364 105.172 784.254 106.046 784.273 107.137L786.155 214.606ZM695.873 212.814C695.074 214.134 696.008 215.823 697.55 215.85L737.651 216.535C738.79 216.554 739.715 215.62 739.685 214.482L737.971 150.389C737.918 148.393 735.295 147.699 734.261 149.406L695.873 212.814Z" fill="white"/>
<path d="M305.905 348.246V356.596H303.093V335.268H310.959C313.293 335.268 315.119 335.863 316.438 337.055C317.766 338.246 318.43 339.823 318.43 341.786C318.43 343.856 317.78 345.453 316.481 346.576C315.192 347.689 313.342 348.246 310.93 348.246H305.905ZM305.905 345.946H310.959C312.463 345.946 313.615 345.595 314.416 344.892C315.217 344.179 315.617 343.153 315.617 341.815C315.617 340.546 315.217 339.53 314.416 338.769C313.615 338.007 312.517 337.611 311.12 337.582H305.905V345.946ZM337.653 356.596C337.497 356.283 337.37 355.727 337.272 354.926C336.013 356.234 334.509 356.889 332.761 356.889C331.198 356.889 329.914 356.449 328.908 355.57C327.912 354.682 327.414 353.559 327.414 352.201C327.414 350.551 328.039 349.271 329.289 348.363C330.549 347.445 332.316 346.986 334.592 346.986H337.228V345.741C337.228 344.794 336.945 344.042 336.379 343.485C335.812 342.919 334.977 342.636 333.874 342.636C332.907 342.636 332.096 342.88 331.442 343.368C330.788 343.856 330.461 344.447 330.461 345.141H327.736C327.736 344.35 328.014 343.588 328.571 342.855C329.138 342.113 329.899 341.527 330.856 341.098C331.823 340.668 332.883 340.453 334.035 340.453C335.861 340.453 337.292 340.912 338.327 341.83C339.362 342.738 339.899 343.993 339.938 345.595V352.89C339.938 354.345 340.124 355.502 340.495 356.361V356.596H337.653ZM333.156 354.53C334.006 354.53 334.811 354.311 335.573 353.871C336.335 353.432 336.887 352.86 337.228 352.157V348.905H335.104C331.784 348.905 330.124 349.877 330.124 351.82C330.124 352.67 330.407 353.334 330.973 353.812C331.54 354.291 332.267 354.53 333.156 354.53ZM349.992 348.539C349.992 346.068 350.563 344.105 351.706 342.65C352.848 341.186 354.362 340.453 356.247 340.453C358.18 340.453 359.689 341.137 360.773 342.504L360.905 340.746H363.38V356.215C363.38 358.266 362.77 359.882 361.549 361.063C360.338 362.245 358.708 362.836 356.657 362.836C355.514 362.836 354.396 362.592 353.302 362.104C352.209 361.615 351.374 360.946 350.797 360.097L352.204 358.471C353.366 359.906 354.787 360.624 356.466 360.624C357.785 360.624 358.81 360.253 359.543 359.511C360.285 358.769 360.656 357.724 360.656 356.376V355.014C359.572 356.264 358.092 356.889 356.217 356.889C354.362 356.889 352.858 356.142 351.706 354.647C350.563 353.153 349.992 351.117 349.992 348.539ZM352.716 348.847C352.716 350.634 353.083 352.04 353.815 353.065C354.547 354.081 355.573 354.589 356.891 354.589C358.6 354.589 359.855 353.812 360.656 352.26V345.023C359.826 343.51 358.581 342.753 356.921 342.753C355.602 342.753 354.572 343.266 353.83 344.291C353.088 345.316 352.716 346.835 352.716 348.847ZM380.509 356.889C378.361 356.889 376.613 356.186 375.265 354.779C373.917 353.363 373.244 351.474 373.244 349.11V348.612C373.244 347.04 373.541 345.639 374.137 344.408C374.743 343.168 375.582 342.201 376.657 341.508C377.741 340.805 378.912 340.453 380.172 340.453C382.233 340.453 383.834 341.132 384.977 342.489C386.12 343.847 386.691 345.79 386.691 348.319V349.447H375.954C375.993 351.01 376.447 352.274 377.316 353.241C378.195 354.198 379.308 354.677 380.656 354.677C381.613 354.677 382.423 354.481 383.087 354.091C383.751 353.7 384.332 353.183 384.83 352.538L386.486 353.827C385.158 355.868 383.165 356.889 380.509 356.889ZM380.172 342.68C379.079 342.68 378.161 343.08 377.418 343.881C376.676 344.672 376.217 345.785 376.041 347.221H383.981V347.016C383.903 345.639 383.532 344.574 382.868 343.822C382.204 343.061 381.305 342.68 380.172 342.68ZM416.539 354.677C417.506 354.677 418.351 354.384 419.073 353.798C419.796 353.212 420.196 352.479 420.274 351.601H422.838C422.789 352.509 422.477 353.373 421.9 354.193C421.324 355.014 420.553 355.668 419.586 356.156C418.629 356.645 417.613 356.889 416.539 356.889C414.381 356.889 412.662 356.171 411.383 354.735C410.113 353.29 409.479 351.317 409.479 348.817V348.363C409.479 346.82 409.762 345.448 410.328 344.247C410.895 343.046 411.705 342.113 412.76 341.449C413.824 340.785 415.079 340.453 416.524 340.453C418.302 340.453 419.776 340.985 420.948 342.05C422.13 343.114 422.76 344.496 422.838 346.195H420.274C420.196 345.17 419.806 344.33 419.103 343.676C418.409 343.012 417.55 342.68 416.524 342.68C415.147 342.68 414.078 343.178 413.316 344.174C412.564 345.16 412.188 346.591 412.188 348.466V348.979C412.188 350.805 412.564 352.211 413.316 353.197C414.068 354.184 415.143 354.677 416.539 354.677ZM442.12 356.596C441.964 356.283 441.837 355.727 441.739 354.926C440.479 356.234 438.975 356.889 437.227 356.889C435.665 356.889 434.381 356.449 433.375 355.57C432.379 354.682 431.881 353.559 431.881 352.201C431.881 350.551 432.506 349.271 433.756 348.363C435.015 347.445 436.783 346.986 439.058 346.986H441.695V345.741C441.695 344.794 441.412 344.042 440.846 343.485C440.279 342.919 439.444 342.636 438.341 342.636C437.374 342.636 436.563 342.88 435.909 343.368C435.255 343.856 434.928 344.447 434.928 345.141H432.203C432.203 344.35 432.481 343.588 433.038 342.855C433.604 342.113 434.366 341.527 435.323 341.098C436.29 340.668 437.349 340.453 438.502 340.453C440.328 340.453 441.759 340.912 442.794 341.83C443.829 342.738 444.366 343.993 444.405 345.595V352.89C444.405 354.345 444.591 355.502 444.962 356.361V356.596H442.12ZM437.623 354.53C438.472 354.53 439.278 354.311 440.04 353.871C440.802 353.432 441.353 352.86 441.695 352.157V348.905H439.571C436.251 348.905 434.591 349.877 434.591 351.82C434.591 352.67 434.874 353.334 435.44 353.812C436.007 354.291 436.734 354.53 437.623 354.53ZM457.667 340.746L457.754 342.738C458.965 341.215 460.547 340.453 462.501 340.453C465.85 340.453 467.54 342.343 467.569 346.122V356.596H464.859V346.107C464.849 344.965 464.586 344.12 464.068 343.573C463.56 343.026 462.764 342.753 461.68 342.753C460.801 342.753 460.03 342.987 459.366 343.456C458.702 343.925 458.184 344.54 457.813 345.302V356.596H455.103V340.746H457.667ZM480.669 340.746L480.757 342.738C481.968 341.215 483.55 340.453 485.503 340.453C488.853 340.453 490.542 342.343 490.572 346.122V356.596H487.862V346.107C487.852 344.965 487.588 344.12 487.071 343.573C486.563 343.026 485.767 342.753 484.683 342.753C483.804 342.753 483.033 342.987 482.369 343.456C481.704 343.925 481.187 344.54 480.816 345.302V356.596H478.106V340.746H480.669ZM500.391 348.524C500.391 346.972 500.694 345.575 501.299 344.335C501.914 343.095 502.764 342.138 503.848 341.464C504.942 340.79 506.187 340.453 507.583 340.453C509.741 340.453 511.485 341.2 512.813 342.694C514.151 344.188 514.82 346.176 514.82 348.656V348.847C514.82 350.39 514.522 351.776 513.926 353.007C513.34 354.228 512.495 355.18 511.392 355.863C510.298 356.547 509.038 356.889 507.613 356.889C505.464 356.889 503.721 356.142 502.383 354.647C501.055 353.153 500.391 351.176 500.391 348.715V348.524ZM503.115 348.847C503.115 350.604 503.521 352.016 504.331 353.08C505.152 354.145 506.245 354.677 507.613 354.677C508.989 354.677 510.083 354.14 510.894 353.065C511.704 351.981 512.11 350.468 512.11 348.524C512.11 346.786 511.695 345.38 510.864 344.306C510.044 343.222 508.95 342.68 507.583 342.68C506.245 342.68 505.166 343.212 504.346 344.276C503.526 345.341 503.115 346.864 503.115 348.847ZM528.345 336.908V340.746H531.304V342.841H528.345V352.67C528.345 353.305 528.477 353.783 528.74 354.105C529.004 354.418 529.453 354.574 530.088 354.574C530.4 354.574 530.83 354.516 531.377 354.398V356.596C530.664 356.791 529.971 356.889 529.297 356.889C528.086 356.889 527.173 356.522 526.558 355.79C525.942 355.058 525.635 354.018 525.635 352.67V342.841H522.749V340.746H525.635V336.908H528.345ZM568.242 348.847C568.242 351.269 567.685 353.217 566.572 354.691C565.459 356.156 563.964 356.889 562.089 356.889C560.087 356.889 558.54 356.181 557.446 354.765L557.314 356.596H554.824V334.096H557.534V342.489C558.628 341.132 560.136 340.453 562.06 340.453C563.984 340.453 565.493 341.181 566.587 342.636C567.69 344.091 568.242 346.083 568.242 348.612V348.847ZM565.532 348.539C565.532 346.693 565.175 345.268 564.462 344.262C563.75 343.256 562.724 342.753 561.386 342.753C559.599 342.753 558.315 343.583 557.534 345.243V352.099C558.364 353.759 559.658 354.589 561.416 354.589C562.714 354.589 563.725 354.086 564.448 353.08C565.171 352.074 565.532 350.561 565.532 348.539ZM584.697 356.889C582.548 356.889 580.8 356.186 579.453 354.779C578.105 353.363 577.431 351.474 577.431 349.11V348.612C577.431 347.04 577.729 345.639 578.325 344.408C578.93 343.168 579.77 342.201 580.844 341.508C581.928 340.805 583.1 340.453 584.36 340.453C586.42 340.453 588.022 341.132 589.164 342.489C590.307 343.847 590.878 345.79 590.878 348.319V349.447H580.141C580.18 351.01 580.634 352.274 581.503 353.241C582.382 354.198 583.496 354.677 584.843 354.677C585.8 354.677 586.611 354.481 587.275 354.091C587.939 353.7 588.52 353.183 589.018 352.538L590.673 353.827C589.345 355.868 587.353 356.889 584.697 356.889ZM584.36 342.68C583.266 342.68 582.348 343.08 581.606 343.881C580.864 344.672 580.405 345.785 580.229 347.221H588.168V347.016C588.09 345.639 587.719 344.574 587.055 343.822C586.391 343.061 585.493 342.68 584.36 342.68ZM615.702 356.596V342.841H613.197V340.746H615.702V339.12C615.702 337.421 616.156 336.107 617.064 335.18C617.973 334.252 619.257 333.788 620.917 333.788C621.542 333.788 622.162 333.871 622.777 334.037L622.631 336.234C622.172 336.146 621.684 336.103 621.166 336.103C620.287 336.103 619.608 336.361 619.13 336.879C618.651 337.387 618.412 338.119 618.412 339.076V340.746H621.796V342.841H618.412V356.596H615.702ZM630.531 348.524C630.531 346.972 630.834 345.575 631.439 344.335C632.055 343.095 632.904 342.138 633.988 341.464C635.082 340.79 636.327 340.453 637.723 340.453C639.882 340.453 641.625 341.2 642.953 342.694C644.291 344.188 644.96 346.176 644.96 348.656V348.847C644.96 350.39 644.662 351.776 644.066 353.007C643.48 354.228 642.636 355.18 641.532 355.863C640.438 356.547 639.179 356.889 637.753 356.889C635.604 356.889 633.861 356.142 632.523 354.647C631.195 353.153 630.531 351.176 630.531 348.715V348.524ZM633.256 348.847C633.256 350.604 633.661 352.016 634.471 353.08C635.292 354.145 636.386 354.677 637.753 354.677C639.13 354.677 640.223 354.14 641.034 353.065C641.845 351.981 642.25 350.468 642.25 348.524C642.25 346.786 641.835 345.38 641.005 344.306C640.184 343.222 639.091 342.68 637.723 342.68C636.386 342.68 635.306 343.212 634.486 344.276C633.666 345.341 633.256 346.864 633.256 348.847ZM664.593 355.028C663.539 356.269 661.991 356.889 659.95 356.889C658.26 356.889 656.971 356.4 656.083 355.424C655.204 354.438 654.759 352.982 654.75 351.059V340.746H657.46V350.985C657.46 353.388 658.436 354.589 660.389 354.589C662.46 354.589 663.837 353.817 664.52 352.274V340.746H667.23V356.596H664.652L664.593 355.028ZM680.374 340.746L680.462 342.738C681.673 341.215 683.255 340.453 685.208 340.453C688.558 340.453 690.247 342.343 690.277 346.122V356.596H687.567V346.107C687.557 344.965 687.293 344.12 686.776 343.573C686.268 343.026 685.472 342.753 684.388 342.753C683.509 342.753 682.738 342.987 682.074 343.456C681.41 343.925 680.892 344.54 680.521 345.302V356.596H677.811V340.746H680.374ZM700.154 348.539C700.154 346.107 700.731 344.154 701.883 342.68C703.035 341.195 704.544 340.453 706.409 340.453C708.265 340.453 709.735 341.088 710.819 342.357V334.096H713.529V356.596H711.038L710.906 354.896C709.822 356.225 708.314 356.889 706.38 356.889C704.544 356.889 703.045 356.137 701.883 354.633C700.731 353.129 700.154 351.166 700.154 348.744V348.539ZM702.864 348.847C702.864 350.644 703.236 352.05 703.978 353.065C704.72 354.081 705.745 354.589 707.054 354.589C708.773 354.589 710.028 353.817 710.819 352.274V344.994C710.008 343.5 708.763 342.753 707.083 342.753C705.755 342.753 704.72 343.266 703.978 344.291C703.236 345.316 702.864 346.835 702.864 348.847Z" fill="white"/>
</svg>
