<svg width="100" height="100" viewBox="0 0 100 100" fill="none" xmlns="http://www.w3.org/2000/svg">
<circle cx="50" cy="50" r="47.5" stroke="#2787F5" stroke-width="5"/>
<path d="M31.007 54.1844C29.7686 55.2851 29.657 57.1813 30.7577 58.4197C31.8583 59.6581 33.7546 59.7698 34.993 58.6691L31.007 54.1844ZM65.8756 58.6822C67.1213 59.7747 69.0167 59.6504 70.1092 58.4047C71.2016 57.159 71.0773 55.2636 69.8316 54.1711L65.8756 58.6822ZM50.9738 41.6239L52.9518 39.3684L50.9738 41.6239ZM34.993 58.6691L51.6431 43.8707L47.6571 39.386L31.007 54.1844L34.993 58.6691ZM48.9958 43.8795L65.8756 58.6822L69.8316 54.1711L52.9518 39.3684L48.9958 43.8795ZM51.6431 43.8707C50.8891 44.5408 49.7542 44.5445 48.9958 43.8795L52.9518 39.3684C51.435 38.0382 49.1651 38.0458 47.6571 39.386L51.6431 43.8707Z" fill="#2787F5"/>
</svg>
