<svg width="20" height="20" viewBox="0 0 20 20" fill="none" xmlns="http://www.w3.org/2000/svg">
<path d="M14.2505 2.04995C14.5824 1.98002 14.9257 1.98504 15.2555 2.06464C15.5852 2.14424 15.8931 2.29641 16.1565 2.51006C16.42 2.72371 16.6325 2.99346 16.7785 3.29964C16.9245 3.60583 17.0003 3.94073 17.0005 4.27995V12.2699C17.0005 15.8399 13.5005 17.6699 11.6105 15.7799C9.71047 13.8799 11.5605 10.3999 15.1305 10.3999H15.5005V6.75995L7.53047 8.42995V14.2499C7.53047 17.7499 4.17047 19.5899 2.25047 17.8699L2.14047 17.7699C0.240472 15.8699 2.08047 12.3699 5.66047 12.3699H6.03047V6.23995C6.03047 5.59995 6.07047 5.23995 6.21047 4.87995L6.26047 4.74995C6.43047 4.36995 6.69047 4.04995 7.02047 3.81995C7.38047 3.55995 7.72047 3.41995 8.43047 3.27995L14.2505 2.04995ZM6.03047 13.8799H5.66047C3.34047 13.8799 2.32047 15.8199 3.20047 16.6999C4.08047 17.5799 6.03047 16.5699 6.03047 14.2499V13.8799ZM15.5005 11.8999H15.1305C12.8105 11.8999 11.7905 13.8399 12.6705 14.7199C13.5505 15.5999 15.5005 14.5899 15.5005 12.2699V11.8999ZM15.4805 4.11995C15.4372 3.91883 15.3163 3.74293 15.144 3.63056C14.9717 3.51818 14.762 3.47843 14.5605 3.51995L8.58047 4.76995C8.18047 4.85995 8.04047 4.91995 7.90047 5.01995C7.78228 5.10349 7.68896 5.21755 7.63047 5.34995C7.55047 5.52995 7.53047 5.69995 7.53047 6.22995V6.89995L15.5005 5.22995V4.27995C15.5019 4.2533 15.5019 4.22659 15.5005 4.19995L15.4805 4.11995Z" fill="#5181B8"/>
</svg>
