<svg width="20" height="20" viewBox="0 0 20 20" fill="none" xmlns="http://www.w3.org/2000/svg">
<path fill-rule="evenodd" clip-rule="evenodd" d="M5.835 15.627C7 16.49 8.44 17 10 17C11.56 17 13.001 16.49 14.165 15.627C12.902 14.8866 11.464 14.4975 10 14.5C8.48 14.5 7.057 14.91 5.835 15.627ZM4.695 14.567C3.8206 13.5515 3.25606 12.3064 3.06844 10.9795C2.88083 9.65261 3.07803 8.29976 3.63661 7.08166C4.1952 5.86355 5.09169 4.83138 6.2196 4.10776C7.34751 3.38413 8.65942 2.99948 9.9995 2.99948C11.3396 2.99948 12.6515 3.38413 13.7794 4.10776C14.9073 4.83138 15.8038 5.86355 16.3624 7.08166C16.921 8.29976 17.1182 9.65261 16.9306 10.9795C16.7429 12.3064 16.1784 13.5515 15.304 14.567C13.7254 13.5414 11.8825 12.997 10 13C8.11736 12.9973 6.27456 13.5421 4.696 14.568L4.695 14.567ZM10 1.5C8.88376 1.5 7.77846 1.71986 6.74719 2.14702C5.71592 2.57419 4.77889 3.20029 3.98959 3.98959C3.20029 4.77889 2.57419 5.71592 2.14702 6.74719C1.71986 7.77846 1.5 8.88376 1.5 10C1.5 11.1162 1.71986 12.2215 2.14702 13.2528C2.57419 14.2841 3.20029 15.2211 3.98959 16.0104C4.77889 16.7997 5.71592 17.4258 6.74719 17.853C7.77846 18.2801 8.88376 18.5 10 18.5C12.2543 18.5 14.4163 17.6045 16.0104 16.0104C17.6045 14.4163 18.5 12.2543 18.5 10C18.5 7.74566 17.6045 5.58365 16.0104 3.98959C14.4163 2.39553 12.2543 1.5 10 1.5ZM8.5 8.5C8.5 8.89782 8.65804 9.27936 8.93934 9.56066C9.22064 9.84196 9.60218 10 10 10C10.3978 10 10.7794 9.84196 11.0607 9.56066C11.342 9.27936 11.5 8.89782 11.5 8.5C11.5 8.10218 11.342 7.72064 11.0607 7.43934C10.7794 7.15804 10.3978 7 10 7C9.60218 7 9.22064 7.15804 8.93934 7.43934C8.65804 7.72064 8.5 8.10218 8.5 8.5ZM10 5.5C9.60603 5.5 9.21593 5.5776 8.85195 5.72836C8.48797 5.87913 8.15726 6.1001 7.87868 6.37868C7.6001 6.65726 7.37913 6.98797 7.22836 7.35195C7.0776 7.71593 7 8.10603 7 8.5C7 8.89397 7.0776 9.28407 7.22836 9.64805C7.37913 10.012 7.6001 10.3427 7.87868 10.6213C8.15726 10.8999 8.48797 11.1209 8.85195 11.2716C9.21593 11.4224 9.60603 11.5 10 11.5C10.7956 11.5 11.5587 11.1839 12.1213 10.6213C12.6839 10.0587 13 9.29565 13 8.5C13 7.70435 12.6839 6.94129 12.1213 6.37868C11.5587 5.81607 10.7956 5.5 10 5.5Z" fill="#5181B8"/>
</svg>
