<svg width="139" height="24" viewBox="0 0 139 24" fill="none" xmlns="http://www.w3.org/2000/svg">
<path d="M0 11.5C0 6.08 0 3.37 1.68 1.68C3.37 0 6.08 0 11.5 0H12.5C17.92 0 20.63 0 22.32 1.68C24 3.37 24 6.08 24 11.5V12.5C24 17.92 24 20.63 22.32 22.32C20.63 24 17.92 24 12.5 24H11.5C6.08 24 3.37 24 1.68 22.32C0 20.63 0 17.92 0 12.5V11.5Z" fill="url(#paint0_linear)"/>
<path fill-rule="evenodd" clip-rule="evenodd" d="M6.50039 7.50001H4.75039C4.25039 7.50001 4.15039 7.74001 4.15039 8.00001C4.15039 8.46001 4.75039 10.76 6.91039 13.8C8.36039 15.87 10.4004 17 12.2504 17C13.3604 17 13.5004 16.75 13.5004 16.32V14.75C13.5004 14.25 13.6004 14.15 13.9604 14.15C14.2204 14.15 14.6604 14.28 15.7004 15.28C16.8904 16.47 17.0804 17 17.7504 17H19.5004C20.0004 17 20.2504 16.75 20.1004 16.26C19.9504 15.76 19.3804 15.06 18.6304 14.21C18.2304 13.72 17.6104 13.21 17.4304 12.95C17.1704 12.61 17.2304 12.46 17.4304 12.17C17.4304 12.17 19.5604 9.17001 19.7804 8.14001C19.8904 7.77001 19.7804 7.50001 19.2504 7.50001H17.5004C17.3367 7.49023 17.1743 7.53363 17.0373 7.62374C16.9003 7.71385 16.7962 7.84584 16.7404 8.00001C16.7404 8.00001 15.8404 10.16 14.5904 11.57C14.1804 11.98 13.9904 12.11 13.7704 12.11C13.6704 12.11 13.5004 11.98 13.5004 11.61V8.14001C13.5004 7.70001 13.3704 7.50001 13.0004 7.50001H10.2504C9.97039 7.50001 9.80039 7.70001 9.80039 7.90001C9.80039 8.32001 10.4404 8.42001 10.5004 9.60001V12.18C10.5004 12.75 10.4004 12.85 10.1804 12.85C9.58039 12.85 8.14039 10.67 7.28039 8.18001C7.12039 7.70001 6.95039 7.50001 6.50039 7.50001Z" fill="white"/>
<path d="M104 12.5C104 15.5376 101.538 18 98.5 18C95.4624 18 93 15.5376 93 12.5C93 9.46243 95.4624 7 98.5 7C101.538 7 104 9.46243 104 12.5ZM95.2 12.5C95.2 14.3225 96.6775 15.8 98.5 15.8C100.323 15.8 101.8 14.3225 101.8 12.5C101.8 10.6775 100.323 9.2 98.5 9.2C96.6775 9.2 95.2 10.6775 95.2 12.5Z" fill="black"/>
<path d="M33 17.8343V7.19666H37.3891C38.8688 7.19666 39.9953 7.45228 40.7685 7.96351C41.5417 8.46819 41.9282 9.19572 41.9282 10.1461C41.9282 10.6376 41.7716 11.0801 41.4583 11.4733C41.1517 11.86 40.6952 12.1582 40.0886 12.368C40.7951 12.5122 41.355 12.8038 41.7683 13.243C42.1815 13.6821 42.3882 14.1999 42.3882 14.7963C42.3882 15.786 42.0149 16.5398 41.2684 17.0576C40.5285 17.5754 39.4621 17.8343 38.069 17.8343H33ZM35.4295 13.302V15.9466H38.089C39.3354 15.9466 39.9586 15.5075 39.9586 14.6292C39.9586 13.7444 39.3254 13.302 38.059 13.302H35.4295ZM35.4295 11.5913H37.4291C38.8089 11.5913 39.4987 11.1915 39.4987 10.3919C39.4987 9.55293 38.8455 9.12035 37.5391 9.09413H35.4295V11.5913Z" fill="black"/>
<path d="M48.337 13.6264H47.3549V17.8343H44.6777V7.19666H47.3549V11.4438H48.177L51.1664 7.19666H54.1659L50.2566 12.2893L54.4958 17.8343H51.3364L48.337 13.6264Z" fill="black"/>
<path d="M66.4295 7.19666V17.8343H64V9.12363H60.6191L60.4191 12.8301C60.2925 14.6128 59.9426 15.8942 59.3693 16.6742C58.8028 17.4476 57.933 17.8343 56.7599 17.8343H56.01L56 15.8483L56.4999 15.7992C57.0331 15.7271 57.4197 15.4092 57.6597 14.8455C57.9063 14.2753 58.0629 13.2397 58.1296 11.7388L58.3295 7.19666H66.4295Z" fill="black"/>
<path d="M75.8498 17.8343C75.7432 17.6311 75.6499 17.3001 75.5699 16.8413C74.7967 17.6344 73.4701 18.0309 72.3503 18.0309C71.2639 18.0309 70.3774 17.7261 69.6909 17.1166C69.0043 16.507 68.6611 15.7533 68.6611 14.8553C68.6611 13.7214 69.0876 12.853 69.9408 12.25C70.8006 11.6404 72.4072 11.3357 74.0002 11.3357H75.4899V10.6376C75.4899 10.0871 75.3333 9.64794 75.02 9.32022C74.7067 8.98595 73.85 8.81882 73.2102 8.81882C72.6569 8.81882 72.2037 8.95646 71.8504 9.23174C71.4972 9.50047 71.3205 9.84457 71.3205 10.264H68.891C68.891 9.68071 69.0876 9.1367 69.4809 8.63202C69.8741 8.12079 70.4074 7.72097 71.0806 7.43258C71.7604 7.14419 72.517 7 73.3501 7C74.6166 7 76.0065 7.31461 76.7597 7.94382C77.5128 8.56648 77.8994 9.44476 77.9194 10.5787V15.3764C77.9194 16.3333 78.0561 17.0969 78.3294 17.6671V17.8343H75.8498ZM72.8002 16.1138C73.2801 16.1138 74.1102 15.9991 74.5301 15.7697C74.9567 15.5403 75.2766 15.2322 75.4899 14.8455V12.8399H74.1802C73.2803 12.8399 72.2237 12.9939 71.7704 13.302C71.3172 13.61 71.0906 14.0459 71.0906 14.6095C71.0906 15.0684 71.2439 15.4354 71.5505 15.7107C71.8638 15.9794 72.2803 16.1138 72.8002 16.1138Z" fill="black"/>
<path d="M81.0507 14.7289C81.4508 14.7289 81.927 14.162 82.1537 13.5C82.387 12.8315 82.6077 12.3024 82.6544 11.2669L82.7943 7.19666H90.3029L90.4716 15H91.9713L92.0125 18.545H89.593V17.1166H82.6544V18.545H80.1948V14.8455L81.0507 14.7289ZM83.799 15.1592H88.1537V9.09413H84.9059C84.9059 10.5385 84.7518 11.9798 84.342 13.3648C84.1178 14.1223 83.899 14.8202 83.799 15.1592Z" fill="black"/>
<path d="M106.387 17.8343V7.19666H110.776C112.256 7.19666 113.382 7.45228 114.156 7.96351C114.929 8.46819 115.315 9.19572 115.315 10.1461C115.315 10.6376 115.159 11.0801 114.845 11.4733C114.539 11.86 114.082 12.1582 113.476 12.368C114.182 12.5122 114.742 12.8038 115.155 13.243C115.569 13.6821 115.775 14.1999 115.775 14.7963C115.775 15.786 115.402 16.5398 114.655 17.0576C113.916 17.5754 112.849 17.8343 111.456 17.8343H106.387ZM108.817 13.302V15.9466H111.476C112.723 15.9466 113.346 15.5075 113.346 14.6292C113.346 13.7444 112.713 13.302 111.446 13.302H108.817ZM108.817 11.5913H110.816C112.196 11.5913 112.886 11.1915 112.886 10.3919C112.886 9.55293 112.233 9.12035 110.926 9.09413H108.817V11.5913Z" fill="black"/>
<path d="M121.724 13.6264H120.494V17.8343H118.065V7.19666H120.494V11.4438H121.564L124.554 7.19666H127.553L123.644 12.2893L127.883 17.8343H124.723L121.724 13.6264Z" fill="black"/>
<path d="M134.161 18.0309C132.621 18.0309 131.032 17.5557 130.072 16.6053C129.119 15.6484 128.643 14.3769 128.643 12.7907V12.4958C128.643 11.434 128.849 10.4869 129.263 9.65449C129.683 8.81554 130.269 8.16339 131.022 7.69803C131.775 7.23268 132.615 7 133.542 7C135.015 7 136.49 7.46208 137.29 8.38624C138.097 9.31039 138.5 10.3455 138.5 12.0365V13H131.092C131.092 14.3848 131.462 14.8455 131.982 15.3567C132.509 15.868 133.508 16.1236 134.301 16.1236C135.414 16.1236 136.32 15.6812 137.02 14.7963L138.33 16.0253C137.897 16.661 137.317 17.1559 136.59 17.5098C135.871 17.8572 135.061 18.0309 134.161 18.0309ZM133.532 8.91713C132.865 8.91713 132.325 9.14654 131.912 9.60534C131.505 10.0641 131.246 10.4307 131.132 11.25H136.1V11.3455C136.047 10.5459 135.831 9.94288 135.451 9.53652C135.071 9.1236 134.205 8.91713 133.532 8.91713Z" fill="black"/>
<defs>
<linearGradient id="paint0_linear" x1="6.5" y1="25" x2="12.5" y2="-1" gradientUnits="userSpaceOnUse">
<stop stop-color="#2787F5"/>
<stop offset="1" stop-color="#27C4F5"/>
</linearGradient>
</defs>
</svg>
