<svg width="139" height="24" viewBox="0 0 139 24" fill="none" xmlns="http://www.w3.org/2000/svg">
<path d="M0 11.5C0 6.08 0 3.37 1.68 1.68C3.37 0 6.08 0 11.5 0H12.5C17.92 0 20.63 0 22.32 1.68C24 3.37 24 6.08 24 11.5V12.5C24 17.92 24 20.63 22.32 22.32C20.63 24 17.92 24 12.5 24H11.5C6.08 24 3.37 24 1.68 22.32C0 20.63 0 17.92 0 12.5V11.5Z" fill="#2787F5"/>
<path fill-rule="evenodd" clip-rule="evenodd" d="M6.50039 7.50001H4.75039C4.25039 7.50001 4.15039 7.74001 4.15039 8.00001C4.15039 8.46001 4.75039 10.76 6.91039 13.8C8.36039 15.87 10.4004 17 12.2504 17C13.3604 17 13.5004 16.75 13.5004 16.32V14.75C13.5004 14.25 13.6004 14.15 13.9604 14.15C14.2204 14.15 14.6604 14.28 15.7004 15.28C16.8904 16.47 17.0804 17 17.7504 17H19.5004C20.0004 17 20.2504 16.75 20.1004 16.26C19.9504 15.76 19.3804 15.06 18.6304 14.21C18.2304 13.72 17.6104 13.21 17.4304 12.95C17.1704 12.61 17.2304 12.46 17.4304 12.17C17.4304 12.17 19.5604 9.17001 19.7804 8.14001C19.8904 7.77001 19.7804 7.50001 19.2504 7.50001H17.5004C17.3367 7.49023 17.1743 7.53363 17.0373 7.62374C16.9003 7.71385 16.7962 7.84584 16.7404 8.00001C16.7404 8.00001 15.8404 10.16 14.5904 11.57C14.1804 11.98 13.9904 12.11 13.7704 12.11C13.6704 12.11 13.5004 11.98 13.5004 11.61V8.14001C13.5004 7.70001 13.3704 7.50001 13.0004 7.50001H10.2504C9.97039 7.50001 9.80039 7.70001 9.80039 7.90001C9.80039 8.32001 10.4404 8.42001 10.5004 9.60001V12.18C10.5004 12.75 10.4004 12.85 10.1804 12.85C9.58039 12.85 8.14039 10.67 7.28039 8.18001C7.12039 7.70001 6.95039 7.50001 6.50039 7.50001Z" fill="white"/>
<path d="M104 12.5C104 15.5376 101.538 18 98.5 18C95.4624 18 93 15.5376 93 12.5C93 9.46243 95.4624 7 98.5 7C101.538 7 104 9.46243 104 12.5ZM95.2 12.5C95.2 14.3225 96.6775 15.8 98.5 15.8C100.323 15.8 101.8 14.3225 101.8 12.5C101.8 10.6775 100.323 9.2 98.5 9.2C96.6775 9.2 95.2 10.6775 95.2 12.5Z" fill="black"/>
<path d="M33 17.8343V7.19663H37.3891C38.8688 7.19663 39.9953 7.45225 40.7685 7.96348C41.5417 8.46816 41.9282 9.19569 41.9282 10.1461C41.9282 10.6376 41.7716 11.0801 41.4583 11.4733C41.1517 11.86 40.6952 12.1582 40.0886 12.368C40.7951 12.5122 41.355 12.8038 41.7683 13.243C42.1815 13.6821 42.3882 14.1999 42.3882 14.7963C42.3882 15.786 42.0149 16.5398 41.2684 17.0576C40.5285 17.5754 39.4621 17.8343 38.069 17.8343H33ZM35.4295 13.302V15.9466H38.089C39.3354 15.9466 39.9586 15.5075 39.9586 14.6292C39.9586 13.7444 39.3254 13.302 38.059 13.302H35.4295ZM35.4295 11.5913H37.4291C38.8089 11.5913 39.4987 11.1915 39.4987 10.3919C39.4987 9.5529 38.8455 9.12032 37.5391 9.0941H35.4295V11.5913Z" fill="black"/>
<path d="M48.337 13.6264H47.3549V17.8343H44.6777V7.19663H47.3549V11.4438H48.177L51.1664 7.19663H54.1659L50.2566 12.2893L54.4958 17.8343H51.3364L48.337 13.6264Z" fill="black"/>
<path d="M66.4295 7.19663V17.8343H64V9.1236H60.6191L60.4191 12.8301C60.2925 14.6128 59.9426 15.8942 59.3693 16.6742C58.8028 17.4476 57.933 17.8343 56.7599 17.8343H56.01L56 15.8483L56.4999 15.7992C57.0331 15.7271 57.4197 15.4092 57.6597 14.8455C57.9063 14.2753 58.0629 13.2397 58.1296 11.7388L58.3295 7.19663H66.4295Z" fill="black"/>
<path d="M75.8496 17.8343C75.743 17.6311 75.6497 17.3001 75.5697 16.8413C74.7965 17.6344 73.4699 18.0309 72.3501 18.0309C71.2637 18.0309 70.3772 17.7261 69.6907 17.1166C69.0041 16.507 68.6609 15.7533 68.6609 14.8553C68.6609 13.7214 69.0874 12.853 69.9406 12.25C70.8004 11.6404 72.407 11.3357 74 11.3357H75.4897V10.6376C75.4897 10.0871 75.3331 9.64794 75.0198 9.32022C74.7065 8.98595 73.8498 8.81882 73.21 8.81882C72.6567 8.81882 72.2035 8.95646 71.8502 9.23174C71.497 9.50047 71.3203 9.84457 71.3203 10.264H68.8908C68.8908 9.68071 69.0874 9.1367 69.4807 8.63202C69.8739 8.12079 70.4072 7.72097 71.0804 7.43258C71.7602 7.14419 72.5168 7 73.3499 7C74.6164 7 76.0063 7.31461 76.7595 7.94382C77.5126 8.56648 77.8992 9.44476 77.9192 10.5787V15.3764C77.9192 16.3333 78.0559 17.0969 78.3292 17.6671V17.8343H75.8496ZM72.8 16.1138C73.2799 16.1138 74.11 15.9991 74.5299 15.7697C74.9565 15.5403 75.2764 15.2322 75.4897 14.8455V12.8399H74.18C73.2801 12.8399 72.2235 12.9939 71.7702 13.302C71.317 13.61 71.0904 14.0459 71.0904 14.6095C71.0904 15.0684 71.2437 15.4354 71.5503 15.7107C71.8636 15.9794 72.2801 16.1138 72.8 16.1138Z" fill="black"/>
<path d="M81.0507 14.7289C81.4508 14.7289 81.927 14.162 82.1537 13.5C82.387 12.8315 82.6077 12.3024 82.6544 11.2669L82.7943 7.19663H90.3029L90.4716 15H91.9713L92.0125 18.545H89.593V17.1166H82.6544V18.545H80.1948V14.8455L81.0507 14.7289ZM83.799 15.1592H88.1537V9.0941H84.9059V9.0941C84.9059 10.5385 84.7518 11.9798 84.342 13.3648C84.1178 14.1223 83.899 14.8202 83.799 15.1592Z" fill="black"/>
<path d="M106.387 17.8343V7.19663H110.776C112.256 7.19663 113.382 7.45225 114.156 7.96348C114.929 8.46816 115.315 9.19569 115.315 10.1461C115.315 10.6376 115.159 11.0801 114.845 11.4733C114.539 11.86 114.082 12.1582 113.476 12.368C114.182 12.5122 114.742 12.8038 115.155 13.243C115.569 13.6821 115.775 14.1999 115.775 14.7963C115.775 15.786 115.402 16.5398 114.655 17.0576C113.916 17.5754 112.849 17.8343 111.456 17.8343H106.387ZM108.817 13.302V15.9466H111.476C112.723 15.9466 113.346 15.5075 113.346 14.6292C113.346 13.7444 112.713 13.302 111.446 13.302H108.817ZM108.817 11.5913H110.816C112.196 11.5913 112.886 11.1915 112.886 10.3919C112.886 9.5529 112.233 9.12032 110.926 9.0941H108.817V11.5913Z" fill="black"/>
<path d="M121.724 13.6264H120.494V17.8343H118.065V7.19663H120.494V11.4438H121.564L124.554 7.19663H127.553L123.644 12.2893L127.883 17.8343H124.723L121.724 13.6264Z" fill="black"/>
<path d="M134.161 18.0309C132.621 18.0309 131.032 17.5557 130.072 16.6053C129.119 15.6484 128.643 14.3769 128.643 12.7907V12.4958C128.643 11.434 128.849 10.4869 129.263 9.65449C129.683 8.81554 130.269 8.16339 131.022 7.69803C131.775 7.23268 132.615 7 133.542 7C135.015 7 136.49 7.46208 137.29 8.38624C138.097 9.31039 138.5 10.3455 138.5 12.0365V13H131.092C131.092 14.3848 131.462 14.8455 131.982 15.3567C132.509 15.868 133.508 16.1236 134.301 16.1236C135.414 16.1236 136.32 15.6812 137.02 14.7963L138.33 16.0253C137.897 16.661 137.317 17.1559 136.59 17.5098C135.871 17.8572 135.061 18.0309 134.161 18.0309ZM133.532 8.91713C132.865 8.91713 132.325 9.14654 131.912 9.60534C131.505 10.0641 131.246 10.4307 131.132 11.25H136.1V11.3455C136.047 10.5459 135.831 9.94288 135.451 9.53652C135.071 9.1236 134.205 8.91713 133.532 8.91713Z" fill="black"/>
</svg>
