<svg width="24" height="24" viewBox="0 0 24 24" fill="none" xmlns="http://www.w3.org/2000/svg">
<path d="M7.8408 22.5301C7.61267 22.345 7.42809 22.112 7.3002 21.8476C7.1723 21.5831 7.10422 21.2938 7.1008 21.0001V18.9001H5.5008C5.04902 18.9199 4.59804 18.8456 4.17655 18.6817C3.75505 18.5179 3.37226 18.2681 3.05249 17.9484C2.73272 17.6286 2.48298 17.2458 2.31914 16.8243C2.1553 16.4028 2.08094 15.9519 2.1008 15.5001V6.50007C2.08094 6.04829 2.1553 5.59731 2.31914 5.17582C2.48298 4.75432 2.73272 4.37152 3.05249 4.05176C3.37226 3.73199 3.75505 3.48225 4.17655 3.31841C4.59804 3.15457 5.04902 3.08021 5.5008 3.10007H18.5008C18.9526 3.08021 19.4036 3.15457 19.8251 3.31841C20.2465 3.48225 20.6293 3.73199 20.9491 4.05176C21.2689 4.37152 21.5186 4.75432 21.6825 5.17582C21.8463 5.59731 21.9207 6.04829 21.9008 6.50007V15.5001C21.9207 15.9519 21.8463 16.4028 21.6825 16.8243C21.5186 17.2458 21.2689 17.6286 20.9491 17.9484C20.6293 18.2681 20.2465 18.5179 19.8251 18.6817C19.4036 18.8456 18.9526 18.9199 18.5008 18.9001H13.8408L10.1208 22.1601C9.85866 22.4996 9.47725 22.7267 9.05388 22.7954C8.6305 22.8641 8.19684 22.7692 7.8408 22.5301V22.5301ZM12.7708 17.4401C13.025 17.2159 13.3519 17.0915 13.6908 17.0901H18.5008C18.7159 17.1101 18.9328 17.0825 19.136 17.0092C19.3393 16.9358 19.5238 16.8186 19.6766 16.6659C19.8294 16.5131 19.9466 16.3285 20.0199 16.1253C20.0932 15.9221 20.1208 15.7052 20.1008 15.4901V6.49007C20.1208 6.27495 20.0932 6.05807 20.0199 5.85484C19.9466 5.65162 19.8294 5.46705 19.6766 5.31429C19.5238 5.16152 19.3393 5.0443 19.136 4.97098C18.9328 4.89766 18.7159 4.87003 18.5008 4.89007H5.5008C5.28476 4.8698 5.06692 4.89761 4.86291 4.9715C4.65889 5.04539 4.47376 5.16353 4.32081 5.31744C4.16786 5.47135 4.05087 5.65721 3.97826 5.86168C3.90564 6.06615 3.87919 6.28416 3.9008 6.50007V15.5001C3.88076 15.7152 3.90839 15.9321 3.98171 16.1353C4.05503 16.3385 4.17225 16.5231 4.32502 16.6759C4.47779 16.8286 4.66235 16.9458 4.86557 17.0192C5.0688 17.0925 5.28569 17.1201 5.5008 17.1001H8.0008C8.7008 17.3001 8.7008 17.3001 8.9008 18.0001V20.8301L12.7708 17.4401Z" fill="#828A99"/>
<rect x="6" y="8" width="12" height="2" fill="#ABAFB7"/>
<rect x="6" y="11" width="12" height="1" fill="#ABAFB7"/>
<rect x="6" y="13" width="12" height="1" fill="#ABAFB7"/>
</svg>
