<svg width="24" height="24" viewBox="0 0 24 24" fill="none" xmlns="http://www.w3.org/2000/svg">
<path d="M16.9996 2.8999C18.6997 2.90783 20.3275 3.58878 21.5269 4.79378C22.7263 5.99878 23.3996 7.62975 23.3996 9.3299C23.3996 12.8999 21.9696 14.6899 15.9496 19.3299L13.1696 21.4899C12.8363 21.7486 12.4265 21.889 12.0046 21.889C11.5827 21.889 11.1729 21.7486 10.8396 21.4899L8.04961 19.3699C1.99961 14.6899 0.599609 12.8999 0.599609 9.3299C0.599591 7.62975 1.27292 5.99878 2.47229 4.79378C3.67167 3.58878 5.29947 2.90783 6.99961 2.8999C7.97033 2.92031 8.92397 3.15928 9.78962 3.59902C10.6553 4.03877 11.4106 4.66799 11.9996 5.4399C12.5886 4.66799 13.344 4.03877 14.2096 3.59902C15.0752 3.15928 16.0289 2.92031 16.9996 2.8999Z" fill="url(#paint0_linear)"/>
<defs>
<linearGradient id="paint0_linear" x1="19" y1="-0.5" x2="8.5" y2="16.5" gradientUnits="userSpaceOnUse">
<stop stop-color="#FF00B8"/>
<stop offset="1" stop-color="#FF3358"/>
</linearGradient>
</defs>
</svg>
