<svg width="24" height="20" viewBox="0 0 24 20" fill="none" xmlns="http://www.w3.org/2000/svg">
<path d="M16.9996 0.900024C18.6997 0.907957 20.3275 1.5889 21.5269 2.7939C22.7263 3.9989 23.3996 5.62987 23.3996 7.33002C23.3996 10.9 21.9696 12.69 15.9496 17.33L13.1696 19.49C12.8363 19.7487 12.4265 19.8891 12.0046 19.8891C11.5827 19.8891 11.1729 19.7487 10.8396 19.49L8.04961 17.37C1.99961 12.69 0.599609 10.9 0.599609 7.33002C0.599591 5.62987 1.27292 3.9989 2.47229 2.7939C3.67167 1.5889 5.29947 0.907957 6.99961 0.900024C7.97033 0.920434 8.92397 1.1594 9.78962 1.59915C10.6553 2.03889 11.4106 2.66811 11.9996 3.44002C12.5886 2.66811 13.344 2.03889 14.2096 1.59915C15.0752 1.1594 16.0289 0.920434 16.9996 0.900024Z" fill="#FF006B"/>
</svg>
