<svg width="22" height="19" viewBox="0 0 22 19" fill="none" xmlns="http://www.w3.org/2000/svg">
<path d="M11 3.61539L9.83565 2.2719C8.19599 0.379983 5.42965 -0.0577918 3.28286 1.23028C2.44603 1.73238 1.76818 2.46363 1.33174 3.33651C0.508227 4.98355 0.630377 6.94557 1.65182 8.47774L2.55143 9.82715C3.51559 11.2734 4.59422 12.6399 5.77696 13.9136L10.0434 18.5082C10.2954 18.7796 10.7199 18.7948 10.9906 18.5421L15.6205 14.2209C17.2015 12.7453 18.6059 11.0912 19.8055 9.29172L20.3482 8.47774C21.3696 6.94557 21.4918 4.98355 20.6683 3.33651C20.2318 2.46363 19.554 1.73238 18.7171 1.23028C16.5703 -0.0577918 13.804 0.379984 12.1644 2.2719L11 3.61539Z" fill="url(#paint0_linear)"/>
<defs>
<linearGradient id="paint0_linear" x1="20" y1="1.0025e-06" x2="4.5" y2="17.5" gradientUnits="userSpaceOnUse">
<stop stop-color="#FF3347"/>
<stop offset="1" stop-color="#E7293C"/>
</linearGradient>
</defs>
</svg>
