<svg width="22" height="19" viewBox="0 0 22 19" fill="none" xmlns="http://www.w3.org/2000/svg">
<path d="M11 3.61539L9.663 2.14282C8.00051 0.311755 5.28183 -0.102612 3.14933 1.15004C2.12783 1.75009 1.34061 2.67952 0.91685 3.78585L0.879586 3.88313C0.319703 5.34483 0.406524 6.97548 1.11845 8.36946L1.17314 8.47655C2.47554 11.0267 4.22847 13.3203 6.34728 15.2465L9.70535 18.2992C10.1463 18.7001 10.8162 18.7115 11.2705 18.326L15.1405 15.0424C17.2545 13.2487 19.0575 11.1179 20.4766 8.73622L20.6943 8.37082C21.5189 6.98701 21.6612 5.29493 21.085 3.79068C20.6612 2.68436 19.8722 1.75009 18.8507 1.15004C16.7182 -0.102611 13.9995 0.311754 12.337 2.14282L11 3.61539Z" fill="#FF3347"/>
</svg>
