<svg width="22" height="19" viewBox="0 0 22 19" fill="none" xmlns="http://www.w3.org/2000/svg">
<path d="M10.4447 4.11954L11 4.73112L11.5553 4.11954L12.8923 2.64697C14.3161 1.07879 16.6445 0.72391 18.4708 1.79673C19.345 2.31023 20.0214 3.11074 20.3846 4.05895C20.879 5.34974 20.7564 6.8014 20.05 7.98693L20.6943 8.37082L20.05 7.98693L19.8323 8.35232C18.4555 10.663 16.7063 12.7303 14.6553 14.4705L10.7853 17.7541C10.6183 17.8959 10.372 17.8917 10.2099 17.7443L6.85179 14.6915C4.7999 12.8261 3.10234 10.605 1.84107 8.13542L1.17314 8.47655L1.84107 8.13542L1.78638 8.02834C1.17116 6.8237 1.09613 5.41455 1.57996 4.1514L1.61723 4.05412C1.98015 3.10662 2.65435 2.31062 3.5292 1.79673C5.35554 0.72391 7.68392 1.07879 9.10773 2.64697L10.4447 4.11954Z" stroke="#FF3347" stroke-width="1.5"/>
</svg>
