<svg width="22" height="19" viewBox="0 0 22 19" fill="none" xmlns="http://www.w3.org/2000/svg">
<path d="M10.4332 4.10658L11 4.76054L11.5668 4.10658L12.7311 2.7631C14.1316 1.14711 16.496 0.772238 18.3313 1.8734C19.046 2.30226 19.6249 2.92686 19.9974 3.67192C20.7006 5.07823 20.5963 6.75348 19.7241 8.06171L19.1815 8.87569C18.014 10.6269 16.6473 12.2366 15.1087 13.6726L10.538 17.9387L6.32655 13.4033C5.17112 12.159 4.11738 10.824 3.17547 9.41112L2.27586 8.06171C1.40371 6.75348 1.29941 5.07823 2.00256 3.67192C2.37509 2.92686 2.95398 2.30226 3.66873 1.8734C5.50401 0.772238 7.86836 1.14711 9.26888 2.7631L10.4332 4.10658Z" stroke="#A8ADB8" stroke-width="1.5"/>
</svg>
