<svg width="22" height="19" viewBox="0 0 22 19" fill="none" xmlns="http://www.w3.org/2000/svg">
<path d="M10.6298 3.95149L11 4.35921L11.3702 3.95149L12.7072 2.47892C14.2106 0.823109 16.669 0.448403 18.5974 1.58116C19.5207 2.12352 20.2347 2.96861 20.6181 3.96953C21.1398 5.33147 21.0106 6.86327 20.2648 8.11489L20.0471 8.48029C18.6562 10.8147 16.889 12.9031 14.817 14.6611L10.947 17.9448C10.6842 18.1678 10.2967 18.1611 10.0417 17.9293L6.68362 14.8765C4.60943 12.9908 2.89341 10.7456 1.61843 8.24913L1.17873 8.47369L1.61843 8.24913L1.56374 8.14205C0.916282 6.8743 0.837323 5.39131 1.34651 4.06198L1.38377 3.96469C1.76697 2.96426 2.47884 2.12378 3.40258 1.58116C5.33097 0.448403 7.78945 0.82311 9.29282 2.47892L10.6298 3.95149Z" stroke="#FF3347"/>
</svg>
