<svg width="19" height="20" viewBox="0 0 19 20" fill="none" xmlns="http://www.w3.org/2000/svg">
<path d="M14.5682 17.4091V6.09091C14.5682 5.0742 15.3924 4.25 16.4091 4.25C17.4258 4.25 18.25 5.0742 18.25 6.09091V17.4091C18.25 18.4258 17.4258 19.25 16.4091 19.25C15.3924 19.25 14.5682 18.4258 14.5682 17.4091ZM4.43182 2.59091V17.4091C4.43182 18.4258 3.60762 19.25 2.59091 19.25C1.5742 19.25 0.75 18.4258 0.75 17.4091V2.59091C0.75 1.5742 1.5742 0.75 2.59091 0.75C3.60761 0.75 4.43182 1.5742 4.43182 2.59091ZM11.3409 11.5909V17.4091C11.3409 18.4258 10.5167 19.25 9.5 19.25C8.48329 19.25 7.65909 18.4258 7.65909 17.4091V11.5909C7.65909 10.5742 8.48329 9.75 9.5 9.75C10.5167 9.75 11.3409 10.5742 11.3409 11.5909Z" stroke="url(#paint0_linear)" stroke-width="1.5"/>
<defs>
<linearGradient id="paint0_linear" x1="9.5" y1="22.5" x2="10.7925" y2="7.52524" gradientUnits="userSpaceOnUse">
<stop stop-color="#839AFF"/>
<stop offset="1" stop-color="#68BEFF"/>
</linearGradient>
</defs>
</svg>
