<svg width="14" height="16" viewBox="0 0 14 16" fill="none" xmlns="http://www.w3.org/2000/svg">
<path d="M11.4545 1.14286C11.4545 0.511675 12.0244 0 12.7273 0C13.4302 0 14 0.511675 14 1.14286V14.8571C14 15.4883 13.4302 16 12.7273 16C12.0244 16 11.4545 15.4883 11.4545 14.8571V1.14286Z" fill="#5F9AF7"/>
<path d="M7.63636 6.85714C7.63636 6.22596 8.20618 5.71429 8.90909 5.71429C9.612 5.71429 10.1818 6.22596 10.1818 6.85714V14.8571C10.1818 15.4883 9.612 16 8.90909 16C8.20618 16 7.63636 15.4883 7.63636 14.8571V6.85714Z" fill="#5F9AF7"/>
<path d="M3.81818 2.28571C3.81818 1.65453 4.388 1.14286 5.09091 1.14286C5.79382 1.14286 6.36364 1.65453 6.36364 2.28571V14.8571C6.36364 15.4883 5.79382 16 5.09091 16C4.388 16 3.81818 15.4883 3.81818 14.8571V2.28571Z" fill="#5F9AF7"/>
<path d="M0 9.14286C0 8.51167 0.569819 8 1.27273 8C1.97564 8 2.54545 8.51167 2.54545 9.14286V14.8571C2.54545 15.4883 1.97564 16 1.27273 16C0.569819 16 0 15.4883 0 14.8571V9.14286Z" fill="#5F9AF7"/>
</svg>
