<svg width="30" height="30" viewBox="0 0 30 30" fill="none" xmlns="http://www.w3.org/2000/svg">
<path fill-rule="evenodd" clip-rule="evenodd" d="M27 15C27 21.6274 21.6274 27 15 27C8.37258 27 3 21.6274 3 15C3 8.37258 8.37258 3 15 3C21.6274 3 27 8.37258 27 15ZM30 15C30 23.2843 23.2843 30 15 30C6.71573 30 0 23.2843 0 15C0 6.71573 6.71573 0 15 0C23.2843 0 30 6.71573 30 15ZM14 16.2C14 16.0895 13.9105 16 13.8 16H8.2C8.08954 16 8 15.9105 8 15.8V14.2C8 14.0895 8.08954 14 8.2 14H13.8C13.9105 14 14 13.9105 14 13.8V8.2C14 8.08954 14.0895 8 14.2 8H15.8C15.9105 8 16 8.08954 16 8.2V13.8C16 13.9105 16.0895 14 16.2 14H21.8C21.9105 14 22 14.0895 22 14.2V15.8C22 15.9105 21.9105 16 21.8 16H16.2C16.0895 16 16 16.0895 16 16.2V21.8C16 21.9105 15.9105 22 15.8 22H14.2C14.0895 22 14 21.9105 14 21.8V16.2Z" fill="#4E77AF"/>
</svg>
