<svg width="92" height="92" viewBox="0 0 92 92" fill="none" xmlns="http://www.w3.org/2000/svg">
<path d="M70 0H22C9.84974 0 0 9.84974 0 22V70C0 82.1503 9.84974 92 22 92H70C82.1503 92 92 82.1503 92 70V22C92 9.84974 82.1503 0 70 0Z" fill="url(#paint0_linear)"/>
<path d="M28.3473 27.7557C32.8221 24.6963 39.4918 27.1437 41.1837 32.2066C43.0794 37.4854 38.7059 43.9302 32.9743 43.611C28.1756 43.9882 24.0733 39.4359 24.3117 34.7751C24.387 31.9481 25.9522 29.2519 28.3473 27.7557Z" fill="white"/>
<path d="M56.8582 27.1252C60.699 25.4741 65.6503 26.9381 67.7511 30.6205C70.6938 35.1644 67.9038 42.1097 62.6125 43.3328C57.8672 44.9991 52.324 41.3467 51.6311 36.4595C51.1188 32.6705 53.22 28.5436 56.8582 27.1252Z" fill="white"/>
<path d="M22.0068 50.5949C25.5889 49.0078 29.5723 48.8977 33.422 48.7531C38.4512 48.671 43.4935 49.9699 47.8246 52.5302C51.0684 54.484 52.2896 58.7591 51.2019 62.2684C50.5815 63.5055 48.9983 65.4515 47.8015 65.4856C38.1452 65.3743 28.4956 65.51 18.8448 65.5001C17.3397 65.514 15.3574 63.5823 14.7298 61.9063C14.0084 59.3955 14.1595 56.3265 16.0779 54.3631C17.7206 52.6628 19.8857 51.5797 22.0068 50.5949Z" fill="white"/>
<path d="M51.5 50C56.1585 48.5949 61.5765 48.2884 66.3434 49.2663C70.1135 50.0354 73.9706 51.3111 76.794 54.0374C78.8038 55.9271 79.5793 59.5001 78.7652 61.5349C77.8658 63.7826 75.4663 65.3613 74 65.5C67.9937 65.6492 54.0001 65.5 54.0001 65.5C54.0001 65.5 57.4708 61.8699 56.0315 56.8804C55.0915 53.6219 53.5 52 51.5 50Z" fill="white"/>
<defs>
<linearGradient id="paint0_linear" x1="19.5" y1="86" x2="67.5" y2="-12.5" gradientUnits="userSpaceOnUse">
<stop stop-color="#2787F5"/>
<stop offset="1" stop-color="#27C4F5"/>
</linearGradient>
</defs>
</svg>
