<svg width="92" height="92" viewBox="0 0 92 92" fill="none" xmlns="http://www.w3.org/2000/svg">
<path d="M70 0H22C9.84974 0 0 9.84974 0 22V70C0 82.1503 9.84974 92 22 92H70C82.1503 92 92 82.1503 92 70V22C92 9.84974 82.1503 0 70 0Z" fill="#2787F5"/>
<path d="M30.2766 29.9718C34.267 27.2436 40.2145 29.426 41.7233 33.9408C43.4138 38.6481 39.5137 44.3951 34.4027 44.1105C30.1235 44.4469 26.4653 40.3874 26.6779 36.2313C26.7451 33.7103 28.1409 31.306 30.2766 29.9718Z" fill="white"/>
<path d="M55.7006 29.4096C59.1256 27.9372 63.5408 29.2427 65.4142 32.5265C68.0383 36.5784 65.5504 42.7718 60.832 43.8625C56.6004 45.3484 51.6574 42.0913 51.0394 37.7333C50.5826 34.3545 52.4563 30.6743 55.7006 29.4096Z" fill="white"/>
<path d="M24.6225 50.3384C27.8169 48.923 31.3689 48.8248 34.8019 48.6959C39.2866 48.6227 43.783 49.781 47.6452 52.0641C50.5378 53.8064 51.6268 57.6186 50.6568 60.748C50.1036 61.8511 48.6918 61.8918 47.6245 61.9222C39.0137 61.823 30.4089 61.944 21.8029 61.9351C20.4607 61.9475 18.693 61.9196 18.1334 60.4251C17.4901 58.1861 17.6248 55.4494 19.3355 53.6985C20.8004 52.1823 22.7311 51.2165 24.6225 50.3384Z" fill="white"/>
<path d="M51.3067 49.7279C55.4608 48.475 59.9085 48.2815 64.1594 49.1535C67.5212 49.8394 70.9607 50.977 73.4785 53.4081C75.2707 55.0933 75.5803 57.7785 75.2362 60.0939C74.9186 61.6981 72.9301 61.7824 71.6226 61.9061C66.2666 62.0392 60.9034 61.7497 55.5453 61.893C55.347 59.911 55.4316 57.8869 54.9639 55.9433C54.2859 53.5931 52.6117 51.7365 51.3067 49.7279Z" fill="white"/>
</svg>
