<svg width="92" height="92" viewBox="0 0 92 92" fill="none" xmlns="http://www.w3.org/2000/svg">
<path d="M0 44.0833C0 23.3067 0 12.9183 6.44 6.44C12.9183 0 23.3067 0 44.0833 0H47.9167C68.6933 0 79.0817 0 85.56 6.44C92 12.9183 92 23.3067 92 44.0833V47.9167C92 68.6933 92 79.0817 85.56 85.56C79.0817 92 68.6933 92 47.9167 92H44.0833C23.3067 92 12.9183 92 6.44 85.56C0 79.0817 0 68.6933 0 47.9167V44.0833Z" fill="url(#paint0_linear)"/>
<path fill-rule="evenodd" clip-rule="evenodd" d="M24.9632 29.0051H18.2885C16.3814 29.0051 16 29.9145 16 30.8996C16 32.6425 18.2885 41.357 26.5269 52.8754C32.0574 60.7185 39.8382 65 46.8943 65C51.128 65 51.662 64.0528 51.662 62.4235V56.4749C51.662 54.5804 52.0434 54.2015 53.4165 54.2015C54.4081 54.2015 56.0863 54.6941 60.053 58.483C64.5918 62.9919 65.3165 65 67.8719 65H74.5466C76.4537 65 77.4072 64.0528 76.8351 62.1962C76.263 60.3017 74.0889 57.6495 71.2284 54.4289C69.7027 52.5723 67.338 50.6399 66.6514 49.6548C65.6598 48.3666 65.8886 47.7982 66.6514 46.6994C66.6514 46.6994 74.7755 35.3327 75.6146 31.43C76.0341 30.0281 75.6146 29.0051 73.5931 29.0051H66.9184C66.294 28.9681 65.6746 29.1325 65.1521 29.4739C64.6296 29.8154 64.2325 30.3155 64.0197 30.8996C64.0197 30.8996 60.587 39.0837 55.8194 44.4261C54.2556 45.9795 53.5309 46.4721 52.6918 46.4721C52.3104 46.4721 51.662 45.9795 51.662 44.5776V31.43C51.662 29.7629 51.1661 29.0051 49.7549 29.0051H39.2661C38.1981 29.0051 37.5497 29.7629 37.5497 30.5207C37.5497 32.1121 39.9908 32.491 40.2196 36.9619V46.7373C40.2196 48.897 39.8382 49.2759 38.9991 49.2759C36.7106 49.2759 31.2183 41.016 27.9382 31.5816C27.3279 29.7629 26.6795 29.0051 24.9632 29.0051Z" fill="white"/>
<defs>
<linearGradient id="paint0_linear" x1="36.5" y1="49.5" x2="55" y2="-9.5" gradientUnits="userSpaceOnUse">
<stop stop-color="#2787F5"/>
<stop offset="1" stop-color="#27C4F5"/>
</linearGradient>
</defs>
</svg>
