<svg width="92" height="92" viewBox="0 0 92 92" fill="none" xmlns="http://www.w3.org/2000/svg">
<rect width="92" height="92" rx="22" fill="#2787F5"/>
<path d="M67.4623 51.6135C66.7944 50.7122 66.6448 49.7999 67.0098 48.8756C67.9204 46.4094 82.025 29 76.5 29C72.7034 29.0502 68.1376 29 64.4978 29C63.8221 29.1636 62.5429 31.2619 62.2694 31.9795C60.141 36.8609 57.8172 43.1715 54 47C53.4978 47.4028 52.0721 49.0245 51.5 48.8756C51 45.5 51.5 34 50.881 30.6775C50.56 29.9346 49.8576 29.599 49.1389 29.41C45.5036 28.5483 38.8546 28.7655 37.5 30.5C37.1127 30.9959 36.7204 31.4555 37 31.5C38.2907 31.7026 38.7321 32.4284 39 33.5C39.5 35.5 40.5 47.5 39.5 50C35.5 50 29.3949 35.5022 28.0713 32.2818C27.719 31.3122 26.2847 29.0969 25.3399 28.9328L16.5 29C14.9462 29 14.6153 31.4218 15.1661 32.9577C19.7703 44.3251 29.8458 66.3589 45.2991 65.8073C46.8472 65.8073 49.5104 66.3984 50.7194 65.0636C52.3809 62.8711 50.1509 56.4891 53 55C53.7185 54.6197 56.2283 55.3873 57.5 56.5C61.5 60 61.5 63.5 64.0438 65.7749C64.7309 66 65.333 66.0564 65.85 65.9438L74.1088 65.8088C75.6422 65.8088 77.1526 65.1303 76.8353 63.3071C75.6312 59.3971 70.8334 55.3779 67.4623 51.6135Z" fill="white"/>
</svg>
