<svg width="30" height="30" viewBox="0 0 30 30" fill="none" xmlns="http://www.w3.org/2000/svg">
<path fill-rule="evenodd" clip-rule="evenodd" d="M27 15C27 21.6274 21.6274 27 15 27C8.37258 27 3 21.6274 3 15C3 8.37258 8.37258 3 15 3C21.6274 3 27 8.37258 27 15ZM30 15C30 23.2843 23.2843 30 15 30C6.71573 30 0 23.2843 0 15C0 6.71573 6.71573 0 15 0C23.2843 0 30 6.71573 30 15ZM10.5 14C11.3284 14 12 13.3284 12 12.5C12 11.6716 11.3284 11 10.5 11C9.67157 11 9 11.6716 9 12.5C9 13.3284 9.67157 14 10.5 14ZM21 12.5C21 13.3284 20.3284 14 19.5 14C18.6716 14 18 13.3284 18 12.5C18 11.6716 18.6716 11 19.5 11C20.3284 11 21 11.6716 21 12.5ZM10.8742 18.5144C10.6059 18.0316 9.99714 17.8576 9.51436 18.1258C9.03157 18.3941 8.85763 19.0029 9.12584 19.4856C9.96848 21.0024 11.3975 22.1062 13.0779 22.5383L13.2954 22.5942C14.4136 22.8817 15.5864 22.8817 16.7046 22.5942L16.9221 22.5383C18.6025 22.1062 20.0315 21.0024 20.8742 19.4856C21.1424 19.0029 20.9684 18.3941 20.4856 18.1258C20.0029 17.8576 19.3941 18.0316 19.1258 18.5144C18.5498 19.5513 17.5728 20.3059 16.424 20.6013L16.2065 20.6572C15.415 20.8607 14.585 20.8607 13.7935 20.6572L13.576 20.6013C12.4272 20.3059 11.4502 19.5513 10.8742 18.5144Z" fill="#4E77AF"/>
</svg>
