<svg width="36" height="36" viewBox="0 0 36 36" fill="none" xmlns="http://www.w3.org/2000/svg">
<path fill-rule="evenodd" clip-rule="evenodd" d="M18 33C26.2842 33 33 26.2843 33 18C33 9.7157 26.2842 3 18 3C9.71582 3 3 9.7157 3 18C3 26.2843 9.71582 33 18 33ZM18 36C27.9409 36 36 27.9411 36 18C36 8.0589 27.9409 0 18 0C8.05908 0 0 8.0589 0 18C0 27.9411 8.05908 36 18 36ZM10.9287 16.6569L17.293 10.2929C17.6836 9.90234 18.3164 9.90234 18.707 10.2929L25.0713 16.6569C25.4614 17.0474 25.4614 17.6805 25.0713 18.071C24.6807 18.4616 24.0474 18.4616 23.6567 18.071L19 13.4142V26C19 26.5523 18.5522 27 18 27C17.4478 27 17 26.5523 17 26V13.4142L12.3433 18.071C11.9526 18.4616 11.3193 18.4616 10.9287 18.071C10.5386 17.6805 10.5386 17.0474 10.9287 16.6569Z" fill="#4E77AF"/>
</svg>
