<svg width="19" height="20" fill="none" xmlns="http://www.w3.org/2000/svg"><path fill-rule="evenodd" clip-rule="evenodd" d="M9 5a.9.9 0 01.9.9v3.727l2.236 2.237a.9.9 0 11-1.272 1.272l-2.5-2.5A.9.9 0 018.1 10V5.9A.9.9 0 019 5z" fill="#818C99"/><path d="M9 0a9.973 9.973 0 00-7.2 3.06V.9A.9.9 0 100 .9v4.2a.9.9 0 00.9.9h4.2a.9.9 0 000-1.8H3.203A8.173 8.173 0 019 1.8c2.265 0 4.313.917 5.798 2.402A8.172 8.172 0 0117.2 10a8.172 8.172 0 01-2.402 5.798A8.172 8.172 0 019 18.2a8.165 8.165 0 01-5.35-1.985.9.9 0 10-1.174 1.363A9.964 9.964 0 009 20a9.972 9.972 0 007.071-2.929A9.972 9.972 0 0019 10a9.971 9.971 0 00-2.929-7.071A9.972 9.972 0 009 0z" fill="#818C99"/></svg>