<svg width="20" height="19" fill="none" xmlns="http://www.w3.org/2000/svg"><path d="M15.795.1c1.152 0 1.74.113 2.35.44a3.17 3.17 0 011.315 1.314c.302.565.421 1.108.438 2.095l.002.256V9a.9.9 0 01-1.793.113L18.1 9l-.001-3.1h-16.2l.001 5.895c0 .88.06 1.187.228 1.502.134.25.325.441.575.575.291.156.575.218 1.309.227l.193.001h12.622l-1.463-1.464a.9.9 0 01-.08-1.18l.08-.092a.9.9 0 011.18-.08l.092.08 3 3a.9.9 0 01.08 1.18l-.08.092-3 3a.9.9 0 01-1.353-1.18l.08-.092 1.464-1.464H4.205c-1.063 0-1.646-.097-2.21-.369l-.14-.071A3.171 3.171 0 01.54 14.145C.24 13.582.12 13.039.102 12.052L.1 11.795v-7.59c0-1.152.113-1.74.44-2.35A3.171 3.171 0 011.855.54C2.419.24 2.962.12 3.949.102L4.205.1h11.59zm0 1.8H4.205c-.88 0-1.187.06-1.502.228-.25.134-.441.325-.575.575-.156.291-.218.575-.227 1.309L1.9 4.1h16.198v-.088c-.008-.734-.07-1.018-.226-1.309a1.372 1.372 0 00-.575-.575c-.291-.156-.575-.218-1.309-.227l-.193-.001z" fill="#818C99"/></svg>