<svg width="20" height="20" viewBox="0 0 20 20" fill="none" xmlns="http://www.w3.org/2000/svg">
<path d="M6.82958 15.75C6.9304 15.6382 7.06253 15.5594 7.20878 15.5237C7.35502 15.488 7.50861 15.4972 7.64958 15.55C8.48295 15.8521 9.36316 16.0044 10.2496 16C14.0196 16 16.9996 13.3 16.9996 10C16.9996 6.7 14.0196 4 10.2496 4C6.47958 4 3.49958 6.7 3.49958 10C3.49958 11.21 3.89958 12.37 4.63958 13.35C4.74556 13.4907 4.79866 13.6641 4.78958 13.84C4.63327 14.9429 4.26663 16.0054 3.70958 16.97C5.18958 16.86 6.20958 16.44 6.82958 15.75ZM3.23958 18.5C3.02814 18.5078 2.81839 18.4596 2.63159 18.3603C2.44479 18.2609 2.28759 18.1139 2.17591 17.9342C2.06422 17.7545 2.00204 17.5485 1.99566 17.337C1.98928 17.1255 2.03893 16.9161 2.13958 16.73C2.63674 15.8759 3.01363 14.9572 3.25958 14C2.44066 12.8268 2.00092 11.4308 1.99958 10C1.99958 5.83 5.67958 2.5 10.2496 2.5C14.8196 2.5 18.4996 5.83 18.4996 10C18.4996 14.17 14.8196 17.5 10.2496 17.5C9.34796 17.4996 8.45144 17.3648 7.58958 17.1C6.58958 17.99 5.12958 18.44 3.23958 18.5Z" fill="#5181B8"/>
</svg>
