<svg width="20" height="20" viewBox="0 0 20 20" fill="none" xmlns="http://www.w3.org/2000/svg">
<path fill-rule="evenodd" clip-rule="evenodd" d="M9.2 3.5H10.8C12.08 3.5 12.96 3.5 13.63 3.56C14.29 3.61 14.63 3.71 14.86 3.83C15.4224 4.11492 15.8808 4.56978 16.17 5.13C16.3626 5.56064 16.4581 6.02834 16.45 6.5H3.55V6.37C3.61 5.71 3.71 5.37 3.83 5.14C4.11492 4.57758 4.56978 4.11922 5.13 3.83C5.37 3.71 5.71 3.61 6.37 3.56C7.04 3.5 7.91 3.5 9.2 3.5ZM3.5 8V10.8C3.5 12.08 3.5 12.96 3.56 13.63C3.61 14.29 3.71 14.63 3.83 14.86C4.11492 15.4224 4.56978 15.8808 5.13 16.17C5.37 16.29 5.71 16.39 6.37 16.44C7.04 16.5 7.91 16.5 9.2 16.5H10.8C12.08 16.5 12.96 16.5 13.63 16.44C14.29 16.39 14.63 16.29 14.86 16.17C15.4224 15.8851 15.8808 15.4302 16.17 14.87C16.29 14.63 16.39 14.29 16.44 13.63C16.5 12.96 16.5 12.08 16.5 10.8V9.2V8H3.5ZM2 9.2C2 6.68 2 5.42 2.49 4.46C2.92174 3.61147 3.61147 2.92174 4.46 2.49C5.42 2 6.68 2 9.2 2H10.8C13.32 2 14.58 2 15.54 2.49C16.3885 2.92174 17.0783 3.61147 17.51 4.46C18 5.42 18 6.68 18 9.2V10.8C18 13.32 18 14.58 17.51 15.54C17.0783 16.3885 16.3885 17.0783 15.54 17.51C14.58 18 13.32 18 10.8 18H9.2C6.68 18 5.42 18 4.46 17.51C3.61147 17.0783 2.92174 16.3885 2.49 15.54C2 14.58 2 13.32 2 10.8V9.2Z" fill="#5181B8"/>
</svg>
