<svg width="24" height="20" viewBox="0 0 24 20" fill="none" xmlns="http://www.w3.org/2000/svg">
<path d="M13 2.01218V6.75682C13 6.92361 12.8648 7.05882 12.698 7.05882C8.60861 7.05882 4.88611 9.41765 3.13992 13.1155L1.3875 16.8265C1.26407 17.0878 1.54535 17.3554 1.80025 17.2191L2.55914 16.8133C5.15982 15.4226 8.01358 14.5689 10.9508 14.3031L12.5639 14.1571C12.7981 14.1359 13 14.3203 13 14.5555V18.1485C13 18.8496 13.8378 19.2115 14.3483 18.731L22.4164 11.1375C22.7386 10.8343 22.7535 10.3272 22.4498 10.0056L14.3816 1.46288C13.8846 0.936674 13 1.28839 13 2.01218Z" stroke="#A8ADB8" stroke-width="1.5"/>
</svg>
